<svg xmlns="http://www.w3.org/2000/svg" width="64" height="65" viewBox="0 0 64 65" fill="none">
    <path fill-rule="evenodd" clip-rule="evenodd"
        d="M44.1616 14.716L30.4655 13.7002L31.0252 14.716L33.1244 18.534L31.236 20.7664L30.3552 21.807H33.9689C34.0463 22.291 34.2159 23.0138 34.6011 23.7431C34.937 24.3803 35.4424 25.0306 36.2047 25.508C36.9686 25.9871 37.9515 26.2637 39.1912 26.2127C41.8501 26.1024 43.0997 24.0543 43.671 22.2795C44.0349 21.1485 44.183 19.9729 44.2226 18.7892M34.2704 17.9941L32.6915 15.1244L42.9581 15.8439V17.9941H34.2704ZM15.5925 14.0197L14.9307 13.9868V24.7292L15.176 24.9186L20.999 29.4279L22.0181 30.2165V25.4273H23.3895C23.9888 25.4273 24.4663 24.9301 24.4432 24.3325L24.0991 15.3876C24.0777 14.841 23.6431 14.4014 23.0965 14.3767L15.5925 14.0197ZM16.1951 24.1089V15.314L22.8429 15.6301L23.1706 24.1632H20.7537V27.6387L16.1951 24.1089ZM29.7053 28.6494C29.7448 28.5983 29.8057 28.5703 29.8699 28.5703H40.2929L32.3507 39.7671V33.3776C32.3507 32.4046 31.1456 31.9519 30.5051 32.6812L24.8697 39.1002L17.7308 33.6755C17.0739 33.1766 16.9932 32.2201 17.5579 31.6175C18.0551 31.0874 18.8783 31.0298 19.4447 31.4858L23.4783 34.7391C23.9327 35.1046 24.5978 35.0321 24.9616 34.5777L29.7053 28.6494ZM32.351 46.6048V50.0359H47.5947C47.7116 50.0359 47.8055 49.942 47.8055 49.8251V28.7811C47.8055 28.6642 47.7116 28.5704 47.5947 28.5704H45.4149L35.7443 42.5219H44.2972C44.6512 42.5219 44.9376 42.8084 44.9376 43.1623V45.9644C44.9376 46.3167 44.6512 46.6048 44.2972 46.6048H32.351ZM29.8699 27.3061C29.4221 27.3061 28.9974 27.5103 28.7175 27.8593L24.1074 33.6217L20.2385 30.5035C19.1568 29.6309 17.5861 29.7395 16.6362 30.7537C15.5595 31.9029 15.7126 33.7303 16.9655 34.6819L24.2607 40.2268C24.7003 40.561 25.3242 40.4984 25.6897 40.0819L31.0867 33.936V50.2465C31.0867 50.8293 31.5575 51.3002 32.1403 51.3002H47.5948C48.4098 51.3002 49.07 50.64 49.07 49.825V28.781C49.07 27.9661 48.4098 27.3059 47.5948 27.3059L29.8699 27.3061ZM42.9338 19.3656H34.0779L33.0818 20.5428H35.1513C35.1908 21.9982 35.5563 23.61 36.8751 24.4365C37.4003 24.7657 38.1246 24.9913 39.1388 24.9502C40.9877 24.8728 41.9508 23.4964 42.4661 21.8929C42.774 20.9396 42.891 19.9748 42.9338 19.3656ZM41.8093 28.6165L32.4219 41.8532V45.3402H43.6731V43.786H34.552C34.0351 43.786 33.7322 43.2048 34.0252 42.7801L43.8459 28.6166L41.8093 28.6165Z"
        fill="#378FEB" />
</svg>