<svg xmlns="http://www.w3.org/2000/svg" width="65" height="65" viewBox="0 0 65 65" fill="none">
  <path d="M50.5632 16.3827H44.5981V15.2103C44.5984 15.0121 44.5597 14.8157 44.484 14.6325C44.4084 14.4493 44.2973 14.2828 44.1573 14.1425C44.0172 14.0023 43.8509 13.891 43.6678 13.8151C43.4847 13.7392 43.2884 13.7001 43.0902 13.7001C42.892 13.7001 42.6957 13.7392 42.5126 13.8151C42.3295 13.891 42.1632 14.0023 42.0231 14.1425C41.8831 14.2828 41.7721 14.4493 41.6964 14.6325C41.6208 14.8157 41.582 15.0121 41.5823 15.2103V16.3827H25.1296V19.3986H41.5823V20.5717C41.5829 20.9713 41.742 21.3542 42.0248 21.6365C42.3075 21.9188 42.6907 22.0774 43.0902 22.0774C43.4897 22.0774 43.8729 21.9188 44.1557 21.6365C44.4384 21.3542 44.5975 20.9713 44.5981 20.5717V19.3986H50.5632C50.6342 19.3988 50.7022 19.4271 50.7524 19.4775C50.8025 19.5278 50.8306 19.5959 50.8306 19.667V24.3918H14.1721V19.667C14.172 19.5959 14.2001 19.5278 14.2503 19.4775C14.3004 19.4271 14.3684 19.3988 14.4395 19.3986H20.4044V20.5717C20.4044 20.9717 20.5633 21.3552 20.8461 21.638C21.1289 21.9208 21.5124 22.0797 21.9124 22.0797H21.9127C22.1489 22.0795 22.3817 22.0236 22.5921 21.9164C22.605 21.9099 22.6185 21.9045 22.6312 21.8976C22.6466 21.8893 22.6609 21.8793 22.6759 21.8704C22.7027 21.8546 22.7299 21.8394 22.7556 21.822C22.7674 21.814 22.7782 21.8047 22.7898 21.7964C22.8175 21.7765 22.8454 21.7569 22.8716 21.7353C23.0434 21.594 23.1818 21.4163 23.2767 21.2151C23.3716 21.0139 23.4208 20.7942 23.4207 20.5717V15.2106C23.4209 15.0125 23.382 14.8163 23.3063 14.6333C23.2306 14.4503 23.1194 14.284 22.9793 14.144C22.9033 14.0687 22.8195 14.0017 22.7294 13.9441C22.5019 13.7968 22.2388 13.7137 21.9679 13.7034C21.6971 13.6932 21.4285 13.7562 21.1904 13.8859C20.9524 14.0155 20.7538 14.207 20.6154 14.44C20.4771 14.6731 20.4042 14.9392 20.4045 15.2103V16.3827H14.4395C13.5689 16.3839 12.7343 16.7303 12.1188 17.346C11.5033 17.9617 11.1572 18.7964 11.1562 19.667V48.0158C11.1572 48.8864 11.5033 49.7211 12.1188 50.3368C12.7343 50.9525 13.5689 51.2989 14.4395 51.3001H50.5632C51.4337 51.2989 52.2683 50.9525 52.8838 50.3368C53.4993 49.7211 53.8455 48.8864 53.8464 48.0158V19.667C53.8455 18.7964 53.4993 17.9617 52.8838 17.346C52.2683 16.7303 51.4337 16.3839 50.5632 16.3827ZM50.8306 48.0158C50.8306 48.0869 50.8025 48.155 50.7524 48.2053C50.7022 48.2557 50.6342 48.284 50.5632 48.2842H14.4395C14.3684 48.284 14.3004 48.2557 14.2503 48.2053C14.2001 48.155 14.172 48.0869 14.1721 48.0158V27.4076H50.8306V48.0158Z" fill="#378FEB"/>
  <path d="M21.0665 35.3874C21.1891 35.5096 21.3551 35.5783 21.5283 35.5787C21.7014 35.5791 21.8677 35.5112 21.9909 35.3896L24.927 32.4732C25.0499 32.3506 25.1192 32.1843 25.1197 32.0108C25.1201 31.8372 25.0518 31.6706 24.9296 31.5473L24.8711 31.4888C24.8106 31.4278 24.7387 31.3793 24.6594 31.3461C24.5801 31.3129 24.4951 31.2956 24.4092 31.2953C24.3232 31.295 24.2381 31.3116 24.1586 31.3442C24.079 31.3768 24.0067 31.4247 23.9457 31.4853L21.5315 33.8838L20.55 32.9023C20.4892 32.8414 20.417 32.7931 20.3375 32.7602C20.2581 32.7272 20.1729 32.7103 20.0868 32.7103C20.0008 32.7103 19.9156 32.7273 19.8362 32.7603C19.7567 32.7933 19.6846 32.8416 19.6238 32.9025L19.5661 32.9608C19.4433 33.0836 19.3742 33.2501 19.374 33.4237C19.3739 33.5974 19.4427 33.764 19.5653 33.8869L21.0665 35.3874Z" fill="#378FEB"/>
  <path d="M29.7875 31.5267H28.3802C27.7139 31.5267 27.1738 32.0668 27.1738 32.7331V34.1404C27.1738 34.8067 27.7139 35.3468 28.3802 35.3468H29.7875C30.4538 35.3468 30.9939 34.8067 30.9939 34.1404V32.7331C30.9939 32.0668 30.4538 31.5267 29.7875 31.5267Z" fill="#378FEB"/>
  <path d="M36.6235 31.5267H35.2161C34.5499 31.5267 34.0098 32.0668 34.0098 32.7331V34.1404C34.0098 34.8067 34.5499 35.3468 35.2161 35.3468H36.6235C37.2897 35.3468 37.8298 34.8067 37.8298 34.1404V32.7331C37.8298 32.0668 37.2897 31.5267 36.6235 31.5267Z" fill="#378FEB"/>
  <path d="M43.4594 31.5267H42.052C41.3858 31.5267 40.8457 32.0668 40.8457 32.7331V34.1404C40.8457 34.8067 41.3858 35.3468 42.052 35.3468H43.4594C44.1257 35.3468 44.6657 34.8067 44.6657 34.1404V32.7331C44.6657 32.0668 44.1257 31.5267 43.4594 31.5267Z" fill="#378FEB"/>
  <path d="M41.5753 44.205C41.698 44.3272 41.8639 44.396 42.0371 44.3964C42.2102 44.3968 42.3765 44.3288 42.4997 44.2072L45.4358 41.2908C45.5587 41.1682 45.628 41.002 45.6284 40.8284C45.6289 40.6548 45.5606 40.4882 45.4384 40.3649L45.3799 40.3064C45.3194 40.2454 45.2475 40.1969 45.1682 40.1637C45.0889 40.1305 45.0039 40.1132 44.918 40.1129C44.832 40.1126 44.7469 40.1292 44.6674 40.1618C44.5878 40.1944 44.5155 40.2423 44.4545 40.3029L42.0403 42.7014L41.0588 41.7199C40.998 41.659 40.9258 41.6107 40.8463 41.5778C40.7669 41.5448 40.6817 41.5279 40.5956 41.5279C40.5096 41.528 40.4244 41.5449 40.345 41.5779C40.2655 41.6109 40.1934 41.6592 40.1326 41.7201L40.0749 41.7785C39.9521 41.9012 39.883 42.0677 39.8828 42.2413C39.8827 42.415 39.9515 42.5816 40.0741 42.7046L41.5753 44.205Z" fill="#378FEB"/>
  <path d="M22.9516 40.3451H21.5442C20.878 40.3451 20.3379 40.8852 20.3379 41.5514V42.9588C20.3379 43.625 20.878 44.1651 21.5442 44.1651H22.9516C23.6178 44.1651 24.1579 43.625 24.1579 42.9588V41.5514C24.1579 40.8852 23.6178 40.3451 22.9516 40.3451Z" fill="#378FEB"/>
  <path d="M29.7875 40.3451H28.3802C27.7139 40.3451 27.1738 40.8852 27.1738 41.5514V42.9588C27.1738 43.625 27.7139 44.1651 28.3802 44.1651H29.7875C30.4538 44.1651 30.9939 43.625 30.9939 42.9588V41.5514C30.9939 40.8852 30.4538 40.3451 29.7875 40.3451Z" fill="#378FEB"/>
  <path d="M36.6235 40.3451H35.2161C34.5499 40.3451 34.0098 40.8852 34.0098 41.5514V42.9588C34.0098 43.625 34.5499 44.1651 35.2161 44.1651H36.6235C37.2897 44.1651 37.8298 43.625 37.8298 42.9588V41.5514C37.8298 40.8852 37.2897 40.3451 36.6235 40.3451Z" fill="#378FEB"/>
</svg>