<svg xmlns="http://www.w3.org/2000/svg" width="64" height="65" viewBox="0 0 64 65" fill="none">
  <path d="M31.441 47.2011C31.5475 47.4142 31.7669 47.5521 32.0051 47.5521C32.2433 47.5521 32.4626 47.4142 32.5692 47.2011L41.5258 29.0936C43.4813 25.0008 42.8608 20.3501 39.94 17.2476C37.7902 14.9599 34.9697 13.7001 32.0051 13.7001C29.0404 13.7001 26.22 14.9599 24.0701 17.2476C21.1494 20.3501 20.5289 25.0008 22.4844 29.0936L31.441 47.2011ZM24.979 18.1126C26.8906 16.0818 29.3852 14.9599 32.0051 14.9599C34.625 14.9599 37.1133 16.0818 39.0312 18.1126C41.5947 20.8327 42.1275 24.9318 40.3976 28.5483L32.0051 45.5088L23.6126 28.5483C21.8827 24.9256 22.4155 20.8265 24.979 18.1063V18.1126Z" fill="#378FEB"/>
  <path d="M38.4176 39.1343C38.4176 39.1343 38.3675 39.1343 38.3487 39.1343H38.3424V39.7862L38.2797 40.3816C45.6819 41.234 49.5554 43.3776 49.5554 45.0511C49.5554 47.3827 42.7674 49.9462 32.6388 50.059C32.4319 50.059 32.2188 50.059 32.0057 50.059C31.7926 50.059 31.5795 50.059 31.3539 50.059C21.2441 49.9462 14.4561 47.3827 14.4561 45.0511C14.4561 43.3776 18.3296 41.2403 25.7317 40.3816L25.6628 39.7862V39.1281C25.6628 39.1281 25.6127 39.1281 25.5876 39.1281C19.5956 39.8175 13.1963 41.7354 13.1963 45.0385C13.1963 48.9747 22.5415 51.206 31.3288 51.3C31.5482 51.3 31.7738 51.3 31.9995 51.3C32.2251 51.3 32.4508 51.3 32.6639 51.3C41.4575 51.206 50.8027 48.9747 50.8027 45.0385C50.8027 41.7292 44.4033 39.8175 38.4114 39.1281L38.4176 39.1343Z" fill="#378FEB"/>
  <path d="M38.9001 24.3613C38.9001 24.5556 38.9001 24.7436 38.875 24.9316L40.1223 25.0445C40.1411 24.8188 40.1474 24.5932 40.1474 24.3613C40.1474 24.1294 40.1411 23.9037 40.1223 23.6781L38.875 23.7909C38.8938 23.979 38.9001 24.167 38.9001 24.3613Z" fill="#378FEB"/>
  <path d="M32.0055 32.509C35.7285 32.509 38.9689 29.9956 39.8965 26.398L38.6806 26.0846C37.8971 29.1307 35.1519 31.2554 32.0055 31.2554C28.201 31.2554 25.111 28.1655 25.111 24.3609C25.111 20.5564 28.201 17.4664 32.0055 17.4664C35.1519 17.4664 37.8971 19.5912 38.6806 22.6373L39.8965 22.3239C38.9752 18.7263 35.7285 16.2129 32.0055 16.2129C27.5115 16.2129 23.8574 19.867 23.8574 24.3609C23.8574 28.8549 27.5115 32.509 32.0055 32.509Z" fill="#378FEB"/>
  <path d="M29.273 24.9255L28.4707 25.8907L30.9778 27.9778C31.0906 28.0719 31.2348 28.122 31.3789 28.122C31.4165 28.122 31.4479 28.122 31.4855 28.1157C31.6672 28.0844 31.8239 27.9778 31.918 27.8211L35.6786 21.5534L34.6068 20.9078L31.2222 26.5488L29.2792 24.9255H29.273Z" fill="#378FEB"/>
</svg>