<svg xmlns="http://www.w3.org/2000/svg" width="64" height="65" viewBox="0 0 64 65" fill="none">
  <path fill-rule="evenodd" clip-rule="evenodd" d="M43.0685 51.299C39.3893 51.299 36.3945 48.3027 36.3945 44.625C36.3945 40.9237 39.3908 37.9288 43.0685 37.9288C46.7698 37.9288 49.7647 40.9251 49.7647 44.625C49.7647 48.3042 46.7684 51.299 43.0685 51.299ZM43.0685 39.0083C39.9842 39.0083 37.474 41.5419 37.474 44.625C37.474 47.7314 39.9856 50.2417 43.0685 50.2417C46.1529 50.2417 48.6852 47.7301 48.6852 44.625C48.6852 41.5186 46.1736 39.0083 43.0685 39.0083Z" fill="#378FEB"/>
  <path fill-rule="evenodd" clip-rule="evenodd" d="M41.3939 47.6866C41.2397 47.6866 41.1075 47.6425 41.0194 47.5324L39.301 45.7919C39.0807 45.5716 39.0807 45.2411 39.301 45.0428C39.5213 44.8225 39.8517 44.8225 40.0721 45.0428L41.416 46.3867L46.0851 41.6954C46.3054 41.4751 46.6359 41.4751 46.8562 41.6954C47.0765 41.9157 47.0765 42.2461 46.8562 42.4665L41.7904 47.5323C41.6802 47.6425 41.5261 47.6866 41.3939 47.6866Z" fill="#378FEB"/>
  <path fill-rule="evenodd" clip-rule="evenodd" d="M43.0684 51.2998H14.7861C14.4777 51.2998 14.2354 51.0575 14.2354 50.7491V14.2508C14.2354 13.9424 14.4777 13.7001 14.7861 13.7001H44.5446C44.831 13.7001 45.0953 13.9424 45.0953 14.2508V38.6351C45.0953 38.9436 44.831 39.1859 44.5446 39.1859C44.2361 39.1859 43.9938 38.9436 43.9938 38.6351V14.7577H15.337V50.2426H43.0903C43.3987 50.2426 43.641 50.485 43.641 50.7713C43.641 51.0798 43.3768 51.2998 43.0684 51.2998Z" fill="#378FEB"/>
  <path fill-rule="evenodd" clip-rule="evenodd" d="M41.3936 18.5011H17.8906C17.5822 18.5011 17.3398 18.2367 17.3398 17.9503C17.3398 17.6419 17.5822 17.3995 17.8906 17.3995H41.3936C41.68 17.3995 41.9443 17.6419 41.9443 17.9503C41.9443 18.2367 41.68 18.5011 41.3936 18.5011Z" fill="#378FEB"/>
  <path fill-rule="evenodd" clip-rule="evenodd" d="M41.3936 23.3473H17.8906C17.5822 23.3473 17.3398 23.1049 17.3398 22.7965C17.3398 22.4881 17.5822 22.2457 17.8906 22.2457H41.3936C41.68 22.2457 41.9443 22.4881 41.9443 22.7965C41.9443 23.1049 41.68 23.3473 41.3936 23.3473Z" fill="#378FEB"/>
  <path fill-rule="evenodd" clip-rule="evenodd" d="M41.3936 28.193H17.8906C17.5822 28.193 17.3398 27.9286 17.3398 27.6422C17.3398 27.3338 17.5822 27.0914 17.8906 27.0914H41.3936C41.68 27.0914 41.9443 27.3338 41.9443 27.6422C41.9443 27.9286 41.68 28.193 41.3936 28.193Z" fill="#378FEB"/>
  <path fill-rule="evenodd" clip-rule="evenodd" d="M41.3936 33.0387H17.8906C17.5822 33.0387 17.3398 32.7963 17.3398 32.4879C17.3398 32.1795 17.5822 31.9371 17.8906 31.9371H41.3936C41.68 31.9371 41.9443 32.1795 41.9443 32.4879C41.9443 32.7963 41.68 33.0387 41.3936 33.0387Z" fill="#378FEB"/>
  <path fill-rule="evenodd" clip-rule="evenodd" d="M37.54 37.8851H17.8926C17.5841 37.8851 17.3418 37.6428 17.3418 37.3343C17.3418 37.0259 17.5841 36.7836 17.8926 36.7836H37.496C37.8045 36.7836 38.0468 37.0259 38.0468 37.3343C38.0468 37.6428 37.8044 37.8851 37.54 37.8851Z" fill="#378FEB"/>
  <path fill-rule="evenodd" clip-rule="evenodd" d="M33.8822 42.7304H17.8906C17.5822 42.7304 17.3398 42.4881 17.3398 42.1797C17.3398 41.8933 17.5822 41.6289 17.8906 41.6289H33.8822C34.1907 41.6289 34.433 41.8933 34.433 42.1797C34.433 42.4881 34.1906 42.7304 33.8822 42.7304Z" fill="#378FEB"/>
  <path fill-rule="evenodd" clip-rule="evenodd" d="M34.4771 47.5765H17.8906C17.5822 47.5765 17.3398 47.3342 17.3398 47.0257C17.3398 46.7173 17.5822 46.475 17.8906 46.475H34.4331C34.7415 46.475 34.9838 46.7173 34.9838 47.0257C34.9838 47.3342 34.7415 47.5765 34.4771 47.5765Z" fill="#378FEB"/>
</svg>