<svg xmlns="http://www.w3.org/2000/svg" width="65" height="65" viewBox="0 0 65 65" fill="none">
  <path d="M30.7768 15.0005C30.6636 15.0013 30.5566 15.0193 30.4697 15.0539C24.5867 17.4195 18.5736 19.8183 13.523 21.8379C13.136 21.9181 12.8338 22.2975 12.842 22.6926V44.0595C12.8385 44.4284 13.1023 44.7837 13.4563 44.8875C19.3339 47.5168 25.2962 50.2092 30.3228 52.4727C30.6166 52.6358 31.0056 52.6547 31.2843 52.4595L40.1115 48.4799C41.3673 49.9549 43.2383 50.897 45.3197 50.897C49.0858 50.897 52.1571 47.8257 52.1571 44.0596C52.1571 41.5366 50.7807 39.3285 48.7384 38.1436V22.6927C48.7431 22.3091 48.4569 21.9412 48.0841 21.8513L31.124 15.0673C31.0093 15.0166 30.8901 14.9998 30.7768 15.0005ZM30.7901 16.7633L45.5734 22.6792L39.337 25.1765L24.5537 19.2739L30.7901 16.7633ZM22.2434 20.1953L37.0267 26.1113L30.7902 28.5952L16.0069 22.6926L22.2434 20.1953ZM14.5513 23.9479L29.9355 30.1042V50.4162L14.5513 43.4986V23.9479ZM47.0291 23.9479V37.4491C46.4812 37.3069 45.911 37.2221 45.3197 37.2221C41.5536 37.2221 38.4823 40.2934 38.4823 44.0595C38.4823 45.1208 38.7287 46.1264 39.1634 47.0242L31.6449 50.4162V30.1042L38.4823 27.3666V32.9487C38.4759 33.4003 38.8854 33.8167 39.337 33.8167C39.7885 33.8167 40.198 33.4003 40.1916 32.9487V26.6855L47.0291 23.9479ZM45.3197 38.9314C48.162 38.9314 50.4478 41.2172 50.4478 44.0595C50.4478 46.9018 48.162 49.1876 45.3197 49.1876C42.4774 49.1876 40.1916 46.9018 40.1916 44.0595C40.1916 41.2172 42.4774 38.9314 45.3197 38.9314ZM46.1744 41.0681C45.9586 41.0681 45.7402 41.155 45.5734 41.3219C45.2397 41.6557 45.2397 42.19 45.5734 42.5238L46.2545 43.2048H42.3283C41.8563 43.2048 41.4736 43.5874 41.4736 44.0595C41.4736 44.5316 41.8563 44.9142 42.3283 44.9142H46.2545L45.5734 45.5952C45.2397 45.9291 45.2397 46.4633 45.5734 46.7971C45.9071 47.1309 46.4316 47.1376 46.7753 46.7971C47.4748 46.1019 48.2384 45.3727 48.8853 44.6738C49.0523 44.5178 49.1657 44.3061 49.1657 44.0595C49.1657 43.8129 49.0523 43.6012 48.8853 43.4452C48.2513 42.7337 47.4596 42.0322 46.7753 41.3219C46.6035 41.15 46.3901 41.0669 46.1744 41.0681Z" fill="#378FEB"/>
</svg>