<svg xmlns="http://www.w3.org/2000/svg" width="65" height="65" viewBox="0 0 65 65" fill="none">
  <path d="M9.16229 43.9633C7.79931 43.9633 6.69043 45.0722 6.69043 46.4352C6.69043 47.7981 7.79931 48.907 9.16229 48.907C10.5253 48.907 11.6342 47.7981 11.6342 46.4352C11.6342 45.0721 10.5253 43.9633 9.16229 43.9633ZM9.16229 47.5175C8.56542 47.5175 8.07988 47.032 8.07988 46.4352C8.07988 45.8383 8.56545 45.3527 9.16229 45.3527C9.75913 45.3527 10.2447 45.8383 10.2447 46.4352C10.2447 47.032 9.75909 47.5175 9.16229 47.5175Z" fill="#378FEB"/>
  <path d="M32.0186 43.9633C30.6557 43.9633 29.5469 45.0722 29.5469 46.4352C29.5469 47.7981 30.6557 48.907 32.0186 48.907C33.3816 48.907 34.4905 47.7981 34.4905 46.4352C34.4905 45.0721 33.3816 43.9633 32.0186 43.9633ZM32.0186 47.5175C31.4218 47.5175 30.9363 47.032 30.9363 46.4352C30.9363 45.8383 31.4219 45.3527 32.0186 45.3527C32.6155 45.3527 33.101 45.8383 33.101 46.4352C33.101 47.032 32.6155 47.5175 32.0186 47.5175Z" fill="#378FEB"/>
  <path d="M62.8457 44.6197H42.968V14.3948C42.968 14.0111 42.657 13.7001 42.2733 13.7001C41.8896 13.7001 41.5786 14.0111 41.5786 14.3948V42.2973H39.7213V41.3227C39.7213 39.4855 38.3974 37.9519 36.6536 37.625V34.7965C36.6536 34.307 36.5292 33.8214 36.2938 33.3922C36.288 33.3816 36.2813 33.3718 36.2749 33.3615L36.2761 33.3608L25.2034 15.3972C25.1891 15.3667 25.1732 15.3367 25.1541 15.3078C24.504 14.3268 23.4134 13.7411 22.2366 13.7411H7.64328C6.15747 13.7411 4.94869 14.9499 4.94869 16.4359V37.5605H3.92908C2.56759 37.5605 1.45996 38.6682 1.45996 40.0296V44.6611C1.45996 46.0226 2.56759 47.1302 3.92908 47.1302H4.34741C4.68553 49.4846 6.71565 51.3001 9.16212 51.3001C11.6085 51.3001 13.6386 49.4846 13.9767 47.1302H27.2043C27.5425 49.4846 29.5726 51.3001 32.019 51.3001C34.4655 51.3001 36.4956 49.4846 36.8337 47.1302H37.2521C38.6135 47.1302 39.7212 46.0226 39.7212 44.6611V43.6867H41.5785V45.3145C41.5785 45.6982 41.8895 46.0092 42.2733 46.0092C42.2906 46.0092 62.8457 46.0092 62.8457 46.0092C63.2294 46.0092 63.5404 45.6982 63.5404 45.3145C63.5404 44.9308 63.2294 44.6197 62.8457 44.6197ZM35.2641 37.5605H28.732V34.421H35.217C35.248 34.5434 35.2641 34.6697 35.2641 34.7965V37.5605ZM19.2183 37.5605V32.6659L22.1346 33.1075L22.1347 33.1069C22.1527 33.1096 22.1707 33.1122 22.1892 33.1135C22.2371 33.117 22.2847 33.1186 22.3322 33.1186C22.368 33.1186 22.4037 33.1173 22.4391 33.1154L21.4048 34.3994C21.1641 34.6982 21.2112 35.1355 21.51 35.3762C21.6384 35.4797 21.7924 35.5299 21.9454 35.5299C22.1484 35.5299 22.3496 35.4414 22.4868 35.271L24.2669 33.0614L27.3425 35.5217V37.5604L19.2183 37.5605ZM12.247 37.5605V29.443C12.247 27.9041 13.499 26.6521 15.0379 26.6521C16.5769 26.6521 17.8289 27.9041 17.8289 29.443C17.8289 29.8038 18.1041 30.1003 18.4561 30.1342V30.1344L22.2613 30.5056C22.2618 30.5057 22.2621 30.5057 22.2626 30.5058L22.2697 30.5065L22.2697 30.5062C22.2905 30.5082 22.3115 30.5096 22.3328 30.5098C22.3723 30.51 22.4111 30.5138 22.4486 30.5212C22.7785 30.5858 22.9943 30.9067 22.9298 31.2365C22.8718 31.5325 22.6054 31.7412 22.3055 31.728L18.6276 31.1712L18.6274 31.1719C18.5934 31.1668 18.5589 31.1633 18.5236 31.1633C18.1399 31.1633 17.8288 31.4744 17.8288 31.8581V37.5604L12.247 37.5605ZM15.038 25.2627C13.7252 25.2627 12.6572 24.1947 12.6572 22.8819C12.6572 21.5691 13.7252 20.501 15.038 20.501C16.3508 20.501 17.4188 21.5691 17.4188 22.8819C17.4188 24.1947 16.3508 25.2627 15.038 25.2627ZM6.33814 16.4358C6.33814 15.7161 6.92361 15.1305 7.64328 15.1305H22.2366C22.9414 15.1305 23.5949 15.4791 23.9878 16.0636L23.9836 16.0662L34.4408 33.0315H28.0373C27.6536 33.0315 27.3426 33.3425 27.3426 33.7262V33.7424L25.1386 31.9793L26.9157 29.7733C27.1564 29.4745 27.1093 29.0372 26.8105 28.7964C26.5117 28.5558 26.0744 28.6028 25.8336 28.9016L24.3048 30.7995C24.1739 29.9978 23.5585 29.3227 22.7161 29.1577C22.6074 29.1364 22.4959 29.1246 22.3839 29.1216L19.1702 28.808C18.9843 27.5928 18.273 26.5483 17.2763 25.9139C18.205 25.2265 18.8083 24.1234 18.8083 22.8819C18.8083 20.8029 17.117 19.1116 15.0381 19.1116C12.9591 19.1116 11.2677 20.8029 11.2677 22.8819C11.2677 24.1234 11.871 25.2265 12.7997 25.9139C11.6332 26.6563 10.8576 27.9607 10.8576 29.443V37.5604H10.2377V24.3536H10.2377C10.2377 23.3714 9.43851 22.5723 8.45624 22.5723C7.47397 22.5723 6.67487 23.3714 6.67487 24.3536V37.5605H6.33817V16.4358H6.33814ZM8.06428 24.3536C8.06428 24.1375 8.24012 23.9617 8.45621 23.9617C8.6723 23.9617 8.84817 24.1375 8.84817 24.3536C8.84817 24.354 8.84824 24.3545 8.84824 24.3549V37.5605H8.06428V24.3536ZM9.16215 49.9106C7.24597 49.9106 5.68704 48.3517 5.68704 46.4355C5.68704 44.5193 7.24597 42.9604 9.16215 42.9604C11.0783 42.9604 12.6372 44.5193 12.6372 46.4355C12.6372 48.3517 11.0783 49.9106 9.16215 49.9106ZM32.019 49.9106C30.1029 49.9106 28.544 48.3517 28.544 46.4355C28.544 44.5193 30.1029 42.9604 32.019 42.9604C33.9352 42.9604 35.4942 44.5193 35.4942 46.4355C35.4942 48.3517 33.9352 49.9106 32.019 49.9106ZM37.2522 45.7407H36.8338C36.4956 43.3864 34.4655 41.5709 32.019 41.5709C29.5726 41.5709 27.5425 43.3864 27.2044 45.7407H13.9768C13.6386 43.3864 11.6085 41.5709 9.16215 41.5709C6.71565 41.5709 4.68556 43.3864 4.34744 45.7407H3.92911C3.33377 45.7407 2.84944 45.2564 2.84944 44.6611V40.0296C2.84944 39.4342 3.33377 38.9499 3.92911 38.9499H35.9589C37.2673 38.9499 38.3318 40.0144 38.3318 41.3227V44.6611C38.3318 45.2564 37.8475 45.7407 37.2522 45.7407Z" fill="#378FEB"/>
  <path d="M58.4007 39.1066H56.9193C56.5356 39.1066 56.2246 39.4176 56.2246 39.8013C56.2246 40.185 56.5356 40.496 56.9193 40.496H58.4007C58.7844 40.496 59.0954 40.185 59.0954 39.8013C59.0954 39.4176 58.7844 39.1066 58.4007 39.1066Z" fill="#378FEB"/>
  <path d="M44.5434 43.8565H61.6373C62.021 43.8565 62.332 43.5455 62.332 43.1618V26.0678C62.332 25.6841 62.021 25.373 61.6373 25.373H44.5434C44.1597 25.373 43.8486 25.6841 43.8486 26.0678V43.1617C43.8486 43.5455 44.1597 43.8565 44.5434 43.8565ZM55.2161 30.1737L53.5634 28.6378L53.5629 28.6383C53.2988 28.3924 52.886 28.3882 52.6175 28.6378L50.9645 30.1738V26.7625H55.2161V30.1737H55.2161ZM45.2381 26.7625H49.5751V31.7677H49.5758C49.5758 31.9371 49.6365 32.1068 49.7609 32.2406C49.8977 32.3879 50.0836 32.4625 50.27 32.4625C50.4392 32.4625 50.6089 32.4009 50.7427 32.2766L53.0903 30.095L55.4378 32.2766L55.4384 32.2761C55.5624 32.3914 55.7281 32.4624 55.9108 32.4624C56.2945 32.4624 56.6055 32.1514 56.6055 31.7677V26.7625H60.9425V42.467H45.238L45.2381 26.7625Z" fill="#378FEB"/>
</svg>