<svg xmlns="http://www.w3.org/2000/svg" width="64" height="65" viewBox="0 0 64 65" fill="none">
  <path d="M6.3518 44.4676C5.9158 44.4676 5.5625 44.1143 5.5625 43.6783V14.4898C5.5625 14.0539 5.9158 13.7006 6.3518 13.7006H40.2577C40.6937 13.7006 41.047 14.0539 41.047 14.4898V22.0632C41.047 22.4992 40.6937 22.8525 40.2577 22.8525C39.8217 22.8525 39.4684 22.4992 39.4684 22.0632V15.2791H7.14109V43.6783C7.14109 44.1143 6.78779 44.4676 6.3518 44.4676Z" fill="#378FEB"/>
  <path d="M57.6487 44.4679C57.2127 44.4679 56.8594 44.1146 56.8594 43.6786V34.7823C56.8594 28.2049 51.5072 22.8529 44.9298 22.8529H41.0434V43.6786C41.0434 44.1146 40.6901 44.4679 40.2541 44.4679C39.8181 44.4679 39.4648 44.1146 39.4648 43.6786V22.0636C39.4648 21.6276 39.8181 21.2743 40.2541 21.2743H44.9298C46.7527 21.2743 48.523 21.6313 50.188 22.3379C51.7967 23.0182 53.2399 23.9917 54.4803 25.232C55.7206 26.4723 56.6941 27.9155 57.3744 29.5242C58.0772 31.1892 58.438 32.9594 58.438 34.7823V43.6786C58.438 44.1146 58.0847 44.4679 57.6487 44.4679Z" fill="#378FEB"/>
  <path d="M43.6409 35.6507C43.4341 35.6507 43.2312 35.568 43.0846 35.4214C42.9343 35.2748 42.8516 35.0719 42.8516 34.8614V25.4464C42.8516 25.0104 43.2049 24.6571 43.6409 24.6571H44.9338C47.6362 24.6571 50.1807 25.7095 52.0938 27.6226C54.007 29.5356 55.0593 32.0764 55.0593 34.7825C55.0593 35.2147 54.7098 35.568 54.2776 35.5718L43.6521 35.6507C43.6446 35.6507 43.6409 35.6507 43.6409 35.6507ZM44.4302 26.2357V34.0646L53.4432 33.997C53.2628 32.0087 52.4021 30.1671 50.9738 28.7388C49.3614 27.1264 47.2152 26.2357 44.93 26.2357H44.4302Z" fill="#378FEB"/>
  <path d="M58.4188 47.5561H54.01C53.574 47.5561 53.2207 47.2028 53.2207 46.7668C53.2207 46.3308 53.574 45.9775 54.01 45.9775H58.4188C58.6217 45.9775 58.8097 45.8986 58.9525 45.7558C59.0953 45.613 59.1743 45.4213 59.1743 45.2221C59.1743 44.8049 58.836 44.4666 58.4188 44.4666H54.01C53.574 44.4666 53.2207 44.1133 53.2207 43.6773C53.2207 43.2414 53.574 42.8881 54.01 42.8881H58.4188C59.7042 42.8881 60.7528 43.9329 60.7528 45.2221C60.7528 45.846 60.5085 46.4286 60.0688 46.8721C59.629 47.3118 59.0427 47.5561 58.4188 47.5561Z" fill="#378FEB"/>
  <path d="M43.893 47.5565H22.5256C22.0896 47.5565 21.7363 47.2032 21.7363 46.7672C21.7363 46.3312 22.0896 45.9779 22.5256 45.9779H43.8968C44.3328 45.9779 44.6861 46.3312 44.6861 46.7672C44.6861 47.2032 44.329 47.5565 43.893 47.5565Z" fill="#378FEB"/>
  <path d="M43.8855 44.4666H22.5256C22.0896 44.4666 21.7363 44.1133 21.7363 43.6773C21.7363 43.2414 22.0896 42.8881 22.5256 42.8881H43.8892C44.3252 42.8881 44.6785 43.2414 44.6785 43.6773C44.6785 44.1133 44.3215 44.4666 43.8855 44.4666Z" fill="#378FEB"/>
  <path d="M12.4076 47.5561H5.58211C4.29668 47.5561 3.24805 46.5112 3.24805 45.2221C3.24805 44.5982 3.49235 44.0118 3.9321 43.5721C4.37185 43.1324 4.95819 42.8881 5.58211 42.8881H12.4076C12.8436 42.8881 13.1969 43.2414 13.1969 43.6773C13.1969 44.1133 12.8436 44.4666 12.4076 44.4666H5.58211C5.37915 44.4666 5.19122 44.5456 5.04839 44.6884C4.90557 44.8312 4.82664 45.0229 4.82664 45.2221C4.82664 45.6393 5.16491 45.9775 5.58211 45.9775H12.4076C12.8436 45.9775 13.1969 46.3308 13.1969 46.7668C13.1969 47.2028 12.8436 47.5561 12.4076 47.5561Z" fill="#378FEB"/>
  <path d="M17.4663 51.3003C14.1136 51.3003 11.3887 48.5754 11.3887 45.2229C11.3887 41.8703 14.1136 39.1454 17.4663 39.1454C20.8189 39.1454 23.5438 41.8703 23.5438 45.2229C23.5438 48.5754 20.8151 51.3003 17.4663 51.3003ZM17.4663 40.724C14.9856 40.724 12.9673 42.7423 12.9673 45.2229C12.9673 47.7035 14.9856 49.7218 17.4663 49.7218C19.9469 49.7218 21.9652 47.7035 21.9652 45.2229C21.9652 42.7423 19.9469 40.724 17.4663 40.724Z" fill="#378FEB"/>
  <path d="M17.4653 47.744C16.0747 47.744 14.9434 46.6127 14.9434 45.222C14.9434 43.8314 16.0747 42.7001 17.4653 42.7001C18.856 42.7001 19.9873 43.8314 19.9873 45.222C19.9873 46.6127 18.856 47.744 17.4653 47.744ZM17.4653 44.2749C16.9429 44.2749 16.522 44.6996 16.522 45.2183C16.522 45.7369 16.9467 46.1616 17.4653 46.1616C17.9878 46.1616 18.4087 45.7369 18.4087 45.2183C18.4087 44.6996 17.984 44.2749 17.4653 44.2749Z" fill="#378FEB"/>
  <path d="M48.9507 47.7441C47.56 47.7441 46.4287 46.6128 46.4287 45.2221C46.4287 43.8315 47.56 42.7002 48.9507 42.7002C50.3414 42.7002 51.4727 43.8315 51.4727 45.2221C51.4727 46.6128 50.3451 47.7441 48.9507 47.7441ZM48.9507 44.275C48.4283 44.275 48.0073 44.6997 48.0073 45.2184C48.0073 45.7371 48.432 46.1618 48.9507 46.1618C49.4731 46.1618 49.8941 45.7371 49.8941 45.2184C49.8941 44.6997 49.4731 44.275 48.9507 44.275Z" fill="#378FEB"/>
  <path d="M48.9506 51.3003C45.598 51.3003 42.873 48.5754 42.873 45.2229C42.873 41.8703 45.598 39.1454 48.9506 39.1454C52.3033 39.1454 55.0282 41.8703 55.0282 45.2229C55.0282 48.5754 52.3033 51.3003 48.9506 51.3003ZM48.9506 40.724C46.47 40.724 44.4516 42.7423 44.4516 45.2229C44.4516 47.7035 46.47 49.7218 48.9506 49.7218C51.4313 49.7218 53.4496 47.7035 53.4496 45.2229C53.4496 42.7423 51.4313 40.724 48.9506 40.724Z" fill="#378FEB"/>
</svg>