<svg xmlns="http://www.w3.org/2000/svg" width="65" height="65" viewBox="0 0 65 65" fill="none">
  <path d="M53.3112 33.5485C53.3112 33.5188 53.3012 33.4905 53.2975 33.4613C53.2943 33.4444 53.2943 33.4221 53.2889 33.4088C53.2369 33.1118 53.0502 32.8526 52.7687 32.7276L43.2764 28.4749C42.8156 28.2673 42.2707 28.4745 42.0645 28.9371C41.8569 29.3998 42.0636 29.9428 42.5263 30.1504L45.2339 31.3637L25.6206 41.0016L23.178 39.9074L32.9053 35.1263C33.3593 34.9027 33.5473 34.3529 33.3237 33.898C33.1011 33.4435 32.5521 33.2551 32.0954 33.4786L21.0006 38.9323L18.8528 37.9695L27.386 33.7761C27.8409 33.5526 28.0289 33.0027 27.8048 32.5473C27.5813 32.0924 27.0314 31.904 26.5765 32.1285L16.6754 36.9944L14.7662 36.1388L23.0379 32.0733C23.4929 31.8497 23.6804 31.2998 23.4568 30.8449C23.2332 30.3904 22.6848 30.2011 22.228 30.4256L12.2023 35.3536C11.94 35.4827 11.7657 35.7282 11.7127 36.0097C11.6986 36.0521 11.6895 36.1051 11.6895 36.1772V42.302C11.6895 42.6643 11.9016 42.9924 12.2315 43.1398L15.0181 44.3895C15.1737 44.4594 15.343 44.4781 15.5073 44.4575C15.6296 44.4525 15.7528 44.4261 15.87 44.3681L18.5754 43.0398L18.799 43.1407V45.4888C18.799 45.8497 19.0111 46.1787 19.3415 46.3261L22.2043 47.6087C22.3334 47.6671 22.4708 47.689 22.6077 47.6849C22.6163 47.6849 22.6245 47.6881 22.6332 47.6881C22.6378 47.6881 22.6428 47.6867 22.6478 47.6867C22.6501 47.6867 22.6524 47.6867 22.6542 47.6858C22.7829 47.6831 22.9138 47.6552 23.037 47.5946L25.7565 46.2581L26.7481 46.7025V49.0501C26.7481 49.4124 26.9602 49.7405 27.2906 49.8879L30.2634 51.2207C30.3829 51.2746 30.5107 51.301 30.6384 51.301C30.7771 51.301 30.9154 51.2695 31.0432 51.207L33.6472 49.9271C33.9612 49.7734 34.1606 49.4535 34.1606 49.1031V46.7906L37.3514 45.2136L39.9377 46.3721C39.987 46.3945 40.0395 46.4086 40.0906 46.4223C40.3288 46.5154 40.5957 46.5118 40.8298 46.3977L43.6884 44.9923C44.0019 44.8376 44.2004 44.5182 44.2004 44.1682V41.8056L46.7055 40.5713L49.372 41.7672C49.4606 41.8065 49.5527 41.8261 49.6444 41.837C49.8434 41.8799 50.0537 41.863 50.2422 41.7704L52.7979 40.5142C53.1118 40.36 53.3108 40.0406 53.3108 39.6902V33.5644C53.3108 33.5612 53.3099 33.5594 53.3099 33.5567C53.3103 33.5535 53.3112 33.5512 53.3112 33.5485ZM47.4118 32.3379L50.2344 33.6032L30.6215 43.2429L27.798 41.9776L47.4118 32.3379ZM28.0421 45.2693L22.9512 42.9874C22.6679 42.8605 22.3375 42.8847 22.0765 43.0544C21.8151 43.2246 21.6577 43.5148 21.6581 43.826L21.6604 45.3519L20.6346 44.8924V42.5448C20.6346 42.1825 20.4225 41.8544 20.0921 41.707L15.7692 39.7705C15.4854 39.6445 15.1559 39.6687 14.8949 39.838C14.6339 40.0068 14.4765 40.2975 14.4765 40.6082V42.1332L13.5256 41.707V37.5926L29.7204 44.8495V48.963L28.5851 48.4542V46.1061C28.5847 45.7452 28.3725 45.4176 28.0421 45.2693ZM50.7555 39.4725V38.0028C50.7555 37.6866 50.5931 37.3909 50.323 37.2235C50.0533 37.0564 49.717 37.04 49.4327 37.1796L42.8785 40.4107C42.565 40.5649 42.3661 40.8843 42.3661 41.2343V43.5961L41.3435 44.0984V42.6689C41.3435 42.3517 41.1797 42.057 40.9105 41.8895C40.6409 41.7225 40.3037 41.7052 40.0194 41.8457L32.8378 45.3957C32.5243 45.5504 32.3263 45.8693 32.3263 46.2188V48.5304L31.556 48.9087V44.829L51.476 35.0378V39.1189L50.7555 39.4725Z" fill="#378FEB"/>
  <path d="M32.4966 31.9209C37.5204 31.9209 41.6069 27.833 41.6069 22.8096C41.6069 17.7863 37.5204 13.6997 32.4966 13.6997C27.4732 13.6997 23.3857 17.7858 23.3857 22.8092C23.3857 27.8325 27.4732 31.9209 32.4966 31.9209ZM32.4966 15.5354C36.5083 15.5354 39.7713 18.7983 39.7713 22.8092C39.7713 26.8209 36.5083 30.0848 32.4966 30.0848C28.4848 30.0848 25.2214 26.8209 25.2214 22.8092C25.2214 18.7983 28.4853 15.5354 32.4966 15.5354Z" fill="#378FEB"/>
  <path d="M31.6734 28.2712V28.362C31.6734 28.8689 32.0841 29.2796 32.5906 29.2796C33.098 29.2796 33.5082 28.8689 33.5082 28.362V28.2474C34.6804 28.0594 35.5798 27.0419 35.5798 25.8149V24.7595C35.5798 24.0076 35.1093 23.2953 34.2538 22.7546C34.2027 22.7231 33.9526 22.62 33.9526 22.62C33.9312 22.6104 33.9134 22.5976 33.891 22.5894L31.6237 21.7229C31.3175 21.5153 31.2486 21.3661 31.2486 21.3387V20.286C31.2486 19.9383 31.5292 19.6559 31.8747 19.6559H33.1176C33.4653 19.6559 33.7478 19.9383 33.7478 20.286V20.7779C33.7478 21.2848 34.158 21.696 34.6658 21.696C35.1728 21.696 35.5834 21.2853 35.5834 20.7779V20.286C35.5834 19.06 34.6827 18.0424 33.5087 17.8544V17.6153C33.5087 17.1084 33.0984 16.6973 32.591 16.6973C32.0846 16.6973 31.6739 17.1079 31.6739 17.6153V17.8302C30.4104 17.9338 29.4134 18.9938 29.4134 20.2856V21.3382C29.4134 21.8675 29.6393 22.6419 30.7152 23.3208C30.7663 23.3532 30.8206 23.3806 30.8772 23.403L31.1701 23.5148C31.1747 23.5161 31.1788 23.5198 31.1834 23.5216L33.3435 24.3534C33.656 24.5651 33.7395 24.728 33.7446 24.76V25.8154C33.7446 26.1631 33.4639 26.4464 33.119 26.4464H31.8751C31.5288 26.4464 31.2468 26.1631 31.2468 25.8154V25.3226C31.2468 24.8156 30.8361 24.4045 30.3292 24.4045C29.8218 24.4045 29.4111 24.8152 29.4111 25.3226V25.8154C29.4107 27.1072 30.409 28.1676 31.6734 28.2712Z" fill="#378FEB"/>
</svg>