<svg xmlns="http://www.w3.org/2000/svg" width="64" height="65" viewBox="0 0 64 65" fill="none">
  <path d="M52.8103 33.5485C52.8103 33.5188 52.8002 33.4905 52.7966 33.4613C52.7934 33.4444 52.7934 33.4221 52.7879 33.4088C52.7359 33.1118 52.5493 32.8526 52.2677 32.7276L42.7754 28.4749C42.3146 28.2673 41.7698 28.4745 41.5635 28.9371C41.3559 29.3998 41.5626 29.9428 42.0253 30.1504L44.7329 31.3637L25.1196 41.0016L22.677 39.9074L32.4043 35.1263C32.8583 34.9027 33.0463 34.3529 32.8227 33.898C32.6001 33.4435 32.0512 33.2551 31.5944 33.4786L20.4996 38.9323L18.3518 37.9695L26.885 33.7761C27.3399 33.5526 27.5279 33.0027 27.3039 32.5473C27.0803 32.0924 26.5305 31.904 26.0755 32.1285L16.1744 36.9944L14.2653 36.1388L22.537 32.0733C22.9919 31.8497 23.1794 31.2998 22.9558 30.8449C22.7323 30.3904 22.1838 30.2011 21.727 30.4256L11.7014 35.3536C11.439 35.4827 11.2647 35.7282 11.2117 36.0097C11.1976 36.0521 11.1885 36.1051 11.1885 36.1772V42.302C11.1885 42.6643 11.4007 42.9924 11.7306 43.1398L14.5171 44.3895C14.6727 44.4594 14.842 44.4781 15.0063 44.4575C15.1286 44.4525 15.2518 44.4261 15.369 44.3681L18.0744 43.0398L18.298 43.1407V45.4888C18.298 45.8497 18.5102 46.1787 18.8405 46.3261L21.7033 47.6087C21.8324 47.6671 21.9698 47.689 22.1067 47.6849C22.1153 47.6849 22.1236 47.6881 22.1322 47.6881C22.1368 47.6881 22.1418 47.6867 22.1468 47.6867C22.1491 47.6867 22.1514 47.6867 22.1532 47.6858C22.2819 47.6831 22.4129 47.6552 22.5361 47.5946L25.2556 46.2581L26.2471 46.7025V49.0501C26.2471 49.4124 26.4593 49.7405 26.7896 49.8879L29.7624 51.2207C29.8819 51.2746 30.0097 51.301 30.1375 51.301C30.2762 51.301 30.4144 51.2695 30.5422 51.207L33.1463 49.9271C33.4602 49.7734 33.6596 49.4535 33.6596 49.1031V46.7906L36.8505 45.2136L39.4367 46.3721C39.486 46.3945 39.5385 46.4086 39.5896 46.4223C39.8278 46.5154 40.0947 46.5118 40.3288 46.3977L43.1875 44.9923C43.5009 44.8376 43.6994 44.5182 43.6994 44.1682V41.8056L46.2045 40.5713L48.8711 41.7672C48.9596 41.8065 49.0518 41.8261 49.1435 41.837C49.3424 41.8799 49.5528 41.863 49.7412 41.7704L52.2969 40.5142C52.6109 40.36 52.8098 40.0406 52.8098 39.6902V33.5644C52.8098 33.5612 52.8089 33.5594 52.8089 33.5567C52.8093 33.5535 52.8103 33.5512 52.8103 33.5485ZM46.9108 32.3379L49.7335 33.6032L30.1206 43.2429L27.297 41.9776L46.9108 32.3379ZM27.5411 45.2693L22.4503 42.9874C22.1669 42.8605 21.8366 42.8847 21.5756 43.0544C21.3141 43.2246 21.1567 43.5148 21.1571 43.826L21.1594 45.3519L20.1337 44.8924V42.5448C20.1337 42.1825 19.9215 41.8544 19.5911 41.707L15.2682 39.7705C14.9844 39.6445 14.6549 39.6687 14.3939 39.838C14.1329 40.0068 13.9755 40.2975 13.9755 40.6082V42.1332L13.0246 41.707V37.5926L29.2194 44.8495V48.963L28.0841 48.4542V46.1061C28.0837 45.7452 27.8715 45.4176 27.5411 45.2693ZM50.2545 39.4725V38.0028C50.2545 37.6866 50.0921 37.3909 49.822 37.2235C49.5523 37.0564 49.216 37.04 48.9318 37.1796L42.3775 40.4107C42.0641 40.5649 41.8651 40.8843 41.8651 41.2343V43.5961L40.8426 44.0984V42.6689C40.8426 42.3517 40.6788 42.057 40.4095 41.8895C40.1399 41.7225 39.8027 41.7052 39.5184 41.8457L32.3368 45.3957C32.0233 45.5504 31.8253 45.8693 31.8253 46.2188V48.5304L31.0551 48.9087V44.829L50.975 35.0378V39.1189L50.2545 39.4725Z" fill="#378FEB"/>
  <path d="M31.9956 31.9209C37.0194 31.9209 41.106 27.833 41.106 22.8096C41.106 17.7863 37.0194 13.6997 31.9956 13.6997C26.9722 13.6997 22.8848 17.7858 22.8848 22.8092C22.8848 27.8325 26.9722 31.9209 31.9956 31.9209ZM31.9956 15.5354C36.0073 15.5354 39.2703 18.7983 39.2703 22.8092C39.2703 26.8209 36.0073 30.0848 31.9956 30.0848C27.9839 30.0848 24.7204 26.8209 24.7204 22.8092C24.7204 18.7983 27.9843 15.5354 31.9956 15.5354Z" fill="#378FEB"/>
  <path d="M31.1725 28.2713V28.3621C31.1725 28.869 31.5831 29.2797 32.0896 29.2797C32.597 29.2797 33.0072 28.869 33.0072 28.3621V28.2476C34.1794 28.0596 35.0788 27.042 35.0788 25.8151V24.7596C35.0788 24.0077 34.6084 23.2954 33.7528 22.7547C33.7017 22.7232 33.4517 22.6201 33.4517 22.6201C33.4302 22.6105 33.4124 22.5977 33.3901 22.5895L31.1227 21.723C30.8166 21.5154 30.7477 21.3662 30.7477 21.3388V20.2861C30.7477 19.9384 31.0283 19.656 31.3737 19.656H32.6166C32.9643 19.656 33.2468 19.9384 33.2468 20.2861V20.778C33.2468 21.285 33.657 21.6961 34.1648 21.6961C34.6718 21.6961 35.0824 21.2854 35.0824 20.778V20.2861C35.0824 19.0601 34.1817 18.0425 33.0077 17.8545V17.6155C33.0077 17.1085 32.5975 16.6974 32.0901 16.6974C31.5836 16.6974 31.1729 17.1081 31.1729 17.6155V17.8304C29.9094 17.9339 28.9124 18.9939 28.9124 20.2857V21.3384C28.9124 21.8677 29.1383 22.642 30.2142 23.321C30.2654 23.3533 30.3196 23.3807 30.3762 23.4031L30.6692 23.5149C30.6737 23.5162 30.6778 23.5199 30.6824 23.5217L32.8425 24.3535C33.1551 24.5653 33.2386 24.7282 33.2436 24.7601V25.8155C33.2436 26.1632 32.963 26.4466 32.618 26.4466H31.3741C31.0278 26.4466 30.7458 26.1632 30.7458 25.8155V25.3227C30.7458 24.8158 30.3352 24.4047 29.8282 24.4047C29.3208 24.4047 28.9102 24.8153 28.9102 25.3227V25.8155C28.9097 27.1073 29.9081 28.1677 31.1725 28.2713Z" fill="#378FEB"/>
</svg>