<svg xmlns="http://www.w3.org/2000/svg" width="65" height="65" viewBox="0 0 65 65" fill="none">
  <path d="M54.1683 49.8555H51.7926V26.5339H54.1683C54.5011 26.5339 54.7878 26.3087 54.8698 25.9861C54.9517 25.6635 54.8032 25.3307 54.5113 25.172L33.2531 13.821C33.0432 13.7083 32.7923 13.7083 32.5824 13.8159L10.4998 25.1669C10.2029 25.3205 10.0493 25.6533 10.1261 25.981C10.2029 26.3035 10.4947 26.5339 10.8275 26.5339H13.2032V49.8555H10.8326C10.4333 49.8555 10.1107 50.1781 10.1107 50.5774C10.1107 50.9768 10.4333 51.2994 10.8326 51.2994H54.1734C54.5728 51.2994 54.8954 50.9768 54.8954 50.5774C54.8954 50.1781 54.5677 49.8555 54.1683 49.8555ZM50.3539 49.8555H48.4953V26.5339H50.3539V49.8555ZM43.232 39.124H39.2435H38.5882V29.1144C38.5882 28.715 38.2656 28.3925 37.8662 28.3925H33.8777H31.1283H27.1398C26.7405 28.3925 26.4179 28.715 26.4179 29.1144V39.124H25.7625H21.7741C21.3747 39.124 21.0521 39.4466 21.0521 39.8459V49.8555H17.9545V26.5339H47.0566V49.8555H43.959V39.8459C43.9539 39.4466 43.6314 39.124 43.232 39.124ZM32.5005 39.124H28.512H27.8566V29.8363H30.4013V32.6933C30.4013 32.9698 30.56 33.2258 30.8109 33.3435C31.0618 33.4664 31.3587 33.4306 31.5737 33.2565L32.5005 32.5141L33.4272 33.2514C33.5603 33.3538 33.719 33.4101 33.8777 33.4101C33.9853 33.4101 34.0928 33.3845 34.1901 33.3384C34.441 33.2155 34.5997 32.9647 34.5997 32.6882V29.8312H37.1443V39.124H36.489H32.5005ZM26.4794 40.5679H27.1347H27.7901V41.9195L27.5853 41.7557C27.4522 41.6482 27.2934 41.597 27.1347 41.597C26.976 41.597 26.8173 41.6482 26.6841 41.7557L26.4794 41.9195V40.5679ZM31.8451 29.8363H33.1507V31.188L32.9459 31.0242C32.8128 30.9167 32.6541 30.8654 32.4953 30.8654C32.3366 30.8654 32.1779 30.9167 32.0448 31.0242L31.84 31.188V29.8363H31.8451ZM37.2109 40.5679H37.8662H38.5216V41.9195L38.3168 41.7557C38.1837 41.6482 38.025 41.597 37.8662 41.597C37.7075 41.597 37.5488 41.6482 37.4157 41.7557L37.2109 41.9195V40.5679ZM32.905 15.2751L51.2806 25.0901H13.8176L32.905 15.2751ZM14.647 26.5339H16.5056V49.8555H14.647V26.5339ZM22.4909 40.5679H25.0355V43.4248C25.0355 43.7013 25.1942 43.9573 25.4451 44.075C25.696 44.1979 25.9929 44.1621 26.208 43.988L27.1347 43.2507L28.0614 43.988C28.1946 44.0904 28.3533 44.1467 28.512 44.1467C28.6195 44.1467 28.727 44.1211 28.8243 44.075C29.0752 43.9522 29.2339 43.7013 29.2339 43.4248V40.5679H31.7785V49.8555H22.4909V40.5679ZM33.2224 49.8555V40.5679H35.767V43.4248C35.767 43.7013 35.9258 43.9573 36.1766 44.075C36.4275 44.1979 36.7245 44.1621 36.9395 43.988L37.8662 43.2507L38.7929 43.988C38.9261 44.0904 39.0848 44.1467 39.2435 44.1467C39.351 44.1467 39.4585 44.1211 39.5558 44.075C39.8067 43.9522 39.9654 43.7013 39.9654 43.4248V40.5679H42.5101V49.8555H33.2224Z" fill="#378FEB"/>
</svg>