<svg xmlns="http://www.w3.org/2000/svg" width="64" height="64" viewBox="0 0 64 64" fill="none">
  <path d="M29.8477 48.4459C29.088 48.3283 28.5272 48.871 28.5905 49.6579C28.6538 50.4448 29.3231 51.1774 30.0829 51.295C30.8426 51.4125 31.4034 50.8699 31.3401 50.083C31.2768 49.2961 30.6075 48.5635 29.8477 48.4459Z" fill="#378FEB"/>
  <path d="M21.5719 39.971C21.391 40.2152 21.3458 40.577 21.4453 40.9569L21.8885 42.7025C22.0422 43.3176 22.5306 43.7879 23.001 43.7879C23.019 43.7879 23.0281 43.7879 23.0462 43.7879L33.4747 43.1457C33.6827 43.1367 33.8636 43.0281 33.9812 42.8653C34.1621 42.6211 34.2073 42.2593 34.1078 41.8795L33.6646 40.1338C33.5018 39.5007 32.9953 39.0213 32.5069 39.0575L22.0784 39.6997C21.8794 39.6997 21.6985 39.7992 21.5719 39.971Z" fill="#378FEB"/>
  <path d="M59.2791 32.4549C59.1163 32.4549 58.9535 32.491 58.8088 32.5544C58.5917 32.6448 58.4108 32.7986 58.2842 32.9885L52.1247 30.3203C52.1428 30.2299 52.1609 30.1304 52.1609 30.0399C52.1609 29.3706 51.6182 28.8279 50.9489 28.8279C50.6052 28.8279 50.2977 28.9727 50.0716 29.1988C49.8636 29.4159 49.7369 29.7143 49.7369 30.0399C49.7369 30.465 49.954 30.8359 50.2887 31.0529L49.7008 33.1513L42.4741 34.6889L36.8483 35.8828L31.5571 20.0365C31.9461 19.928 32.2988 19.72 32.5701 19.4215C32.9862 18.9602 33.1852 18.3452 33.1219 17.6939L32.9681 15.9664C32.9772 15.9212 32.9681 15.876 32.95 15.8398C32.9229 15.7674 32.8686 15.7132 32.7963 15.7041L29.3502 13.4068L29.2055 13.1354C28.7804 12.3305 27.9664 11.7878 27.0438 11.7154L8.42085 10.413C7.76963 10.3678 7.19077 10.5577 6.73854 10.9557C6.39484 11.218 6.02401 11.5707 5.54464 12.032L5.2733 12.2762C4.64922 12.8731 4.39597 13.7686 4.61304 14.6188L16.2264 52.516C16.5791 53.8817 17.8183 54.8224 19.2112 54.8224C19.2745 54.8224 19.3468 54.8224 19.4101 54.8133L38.422 53.8455C38.5215 53.8365 38.612 53.8365 38.6753 53.8274C38.9014 53.9269 39.1456 53.9631 39.4079 53.945C40.2129 53.8727 40.8008 53.1853 40.7737 52.3893L42.1937 53.3662C42.1937 53.4204 42.2027 53.4747 42.2118 53.529L42.3836 54.0807C42.058 54.3882 41.8681 54.8314 41.9133 55.3198C41.9856 56.1519 42.7183 56.7579 43.5504 56.6856C44.3825 56.6132 44.9885 55.8806 44.9161 55.0485C44.8709 54.5691 44.6086 54.1621 44.2287 53.9179L44.292 53.3481C44.292 53.339 44.292 53.339 44.292 53.33L50.768 52.5793L50.9218 53.0677C50.5962 53.3752 50.4062 53.8184 50.4515 54.3068C50.5238 55.1389 51.2564 55.7449 52.0886 55.6726C52.9207 55.6002 53.5267 54.8676 53.4543 54.0355C53.4091 53.5561 53.1468 53.1491 52.7669 52.9049L52.8302 52.3441L53.2191 52.2989C53.2282 52.2989 53.2282 52.2989 53.2372 52.2898C53.2463 52.2898 53.2553 52.2808 53.2734 52.2808C53.2825 52.2808 53.2915 52.2718 53.3005 52.2627C53.3096 52.2537 53.3186 52.2537 53.3277 52.2446C53.3367 52.2356 53.3458 52.2265 53.3458 52.2265C53.3548 52.2175 53.3639 52.2084 53.3639 52.1994C53.3729 52.1904 53.3729 52.1813 53.3819 52.1723C53.3819 52.1632 53.391 52.1632 53.391 52.1542L58.9082 34.8427L58.9173 34.8336C59.0349 34.8698 59.1615 34.8969 59.2881 34.8969C59.9574 34.8969 60.5001 34.3542 60.5001 33.6849C60.5001 33.0156 59.9484 32.4549 59.2791 32.4549ZM50.0354 33.6307L51.5368 34.3904C51.4464 34.9422 51.0936 36.9953 50.8404 38.4786C50.3791 38.5691 49.8907 38.6686 49.3661 38.7681L50.0354 33.6307ZM53.8432 37.8998C53.1197 38.0354 52.2695 38.2073 51.2745 38.3972C51.4193 37.5561 51.7901 35.3763 51.9167 34.5894L54.4492 35.8647L53.8432 37.8998ZM54.82 36.0546L57.2259 37.2666C56.7194 37.3571 55.8421 37.5199 54.2955 37.8093L54.82 36.0546ZM40.9274 40.4323L39.0642 38.7861L42.3113 38.1982V40.1609C41.859 40.2514 41.3977 40.3418 40.9274 40.4323ZM41.0721 43.4351C41.5425 43.3899 42.8268 43.2271 46.5261 42.6934L46.3723 45.1084L41.0721 45.9133V43.4351ZM40.6651 40.7488V42.7839C40.3395 42.5125 39.7697 42.0422 38.7386 41.2101C38.7567 40.7488 38.7657 40.3056 38.7838 39.9348C38.7929 39.573 38.8019 39.3017 38.811 39.1027L40.6651 40.7488ZM40.6651 43.3356V45.6963L38.6482 43.9054C38.6572 43.5255 38.6753 43.1276 38.6934 42.7296C38.7024 42.395 38.7205 42.0603 38.7296 41.7347C39.6702 42.5035 40.4661 43.1457 40.6651 43.3356ZM40.6651 46.248V48.1836L38.5487 46.655C38.5577 46.3565 38.5939 45.4973 38.6301 44.4391L40.6651 46.248ZM40.7465 48.7534C40.7646 48.7624 40.7827 48.7715 40.8008 48.7805H40.8098C40.8279 48.7896 40.846 48.7896 40.8641 48.7896C40.8732 48.7896 40.8822 48.7896 40.8912 48.7896L42.673 48.5182L42.6188 49.8116L39.9235 50.1191C39.8149 50.0377 39.6883 50.0015 39.5526 50.0106L38.6663 50.092L39.1366 47.5957L40.7465 48.7534ZM41.0721 48.3464V46.3294L46.3452 45.5244L46.2186 47.5595L41.0721 48.3464ZM43.0981 48.4549L47.928 47.7223L47.8014 48.9976C47.7742 48.9976 47.7562 48.9976 47.729 48.9976L46.6979 49.088C46.5351 49.1061 46.3904 49.1875 46.3 49.3232C46.2819 49.3413 46.2728 49.3684 46.2638 49.3865L43.0439 49.7573L43.0981 48.4549ZM46.6346 47.5052L46.7612 45.4702L51.9167 44.6833L51.7268 46.7364L46.6346 47.5052ZM46.7884 45.0451L46.9421 42.6392C47.521 42.5578 48.1541 42.4673 48.8506 42.3678C49.9992 42.205 51.1389 42.0332 52.17 41.8794L51.9529 44.2582L46.7884 45.0451ZM46.9693 42.2141L47.123 39.6906C47.123 39.6725 47.123 39.6635 47.123 39.6454L49.1581 39.2474L52.4775 38.6052L52.2152 41.4453C50.5871 41.6985 48.7149 41.9699 46.9693 42.2141ZM46.5261 34.2367L49.6194 33.5764L49.2395 36.534L46.3181 37.0586L46.5261 34.2367ZM46.2909 37.4837L49.1852 36.9682L48.941 38.8585C48.0908 39.0213 47.1683 39.2112 46.1552 39.4102L46.2909 37.4837ZM42.7183 35.0416L46.101 34.3271L45.893 37.14L42.7092 37.7098V35.0416H42.7183ZM42.7183 38.1259L45.8658 37.5561L45.7301 39.4826C44.7985 39.6635 43.7946 39.8625 42.7183 40.0795V38.1259ZM42.5555 40.5408L46.716 39.7358L46.5532 42.2774C43.9755 42.6482 41.7414 42.9557 41.0721 43.0281V40.8302L42.5555 40.5408ZM42.3113 35.1321V37.7822L38.6753 38.4334L36.3599 36.3893L42.3113 35.1321ZM13.3321 15.7313L13.4768 17.6397C13.5944 19.123 14.9782 20.3079 16.5701 20.3079C16.5882 20.3079 16.5972 20.3079 16.6153 20.3079C17.4203 20.2988 18.1348 19.9823 18.6323 19.4396C18.8494 19.2044 19.0122 18.9331 19.1207 18.6346C19.6001 19.5752 20.6131 20.2355 21.7346 20.2355C21.7527 20.2355 21.7618 20.2355 21.7798 20.2355C22.5125 20.2265 23.1637 19.937 23.625 19.4305C23.833 19.2044 23.9867 18.9421 24.0862 18.6527C24.5385 19.5391 25.4791 20.1631 26.5193 20.1631C26.5283 20.1631 26.5464 20.1631 26.5554 20.1631C27.2247 20.1541 27.8217 19.8828 28.2468 19.4124C28.4458 19.1954 28.5995 18.9421 28.69 18.6617C28.907 19.0868 29.2417 19.4486 29.6397 19.7019L35.7267 37.7279L35.9076 45.1626C35.9076 45.226 35.9438 45.2893 35.989 45.3254L37.7618 46.6007L20.0252 47.6499C19.9619 47.6499 19.9076 47.6499 19.8533 47.6409C19.5277 47.5866 19.2654 47.3514 19.175 47.0258L9.19869 15.9121L13.3321 15.7313ZM8.68314 12.4752L13.5854 12.6832L14.7612 13.3887L18.1258 15.4056L13.5944 15.3242L8.68314 12.4752ZM23.6702 15.9302L23.8149 17.6759C23.8601 18.2276 23.6883 18.7522 23.3265 19.1501C22.9376 19.5752 22.3949 19.8104 21.7798 19.8194C20.4955 19.8375 19.3649 18.8517 19.2654 17.6216L19.1207 15.8307L23.6702 15.9302ZM19.7719 12.9364L23.8963 13.1083L27.7222 15.5775L23.9053 15.5051L19.7719 12.9364ZM36.3327 45.0541L36.2694 42.3317L38.2321 44.0773C38.205 44.8642 38.1778 45.642 38.1507 46.3656L36.3327 45.0541ZM36.2513 41.7709L36.1971 39.6997C36.8573 40.2242 37.608 40.8302 38.3135 41.4001C38.2954 42.0603 38.2683 42.7929 38.2412 43.5436L36.2513 41.7709ZM36.2332 39.1931C36.2242 39.1841 36.2061 39.1751 36.188 39.166L36.1247 36.742L37.4452 37.9088L38.3949 38.75C38.3949 39.0032 38.3678 39.8172 38.3316 40.8845C37.2553 40.0162 36.2423 39.2022 36.2332 39.1931ZM36.4322 35.919L36.4413 35.9552L35.8714 36.0727C35.8624 36.0727 35.8534 36.0818 35.8443 36.0818C35.8353 36.0818 35.8353 36.0818 35.8262 36.0908C35.8172 36.0999 35.8081 36.0999 35.7991 36.1089C35.79 36.1089 35.79 36.118 35.781 36.118C35.772 36.127 35.7629 36.136 35.7539 36.1451C35.7539 36.1541 35.7448 36.1541 35.7448 36.1632C35.7358 36.1722 35.7358 36.1903 35.7267 36.1994C35.7267 36.2084 35.7177 36.2084 35.7177 36.2174C35.7086 36.2355 35.7086 36.2536 35.7086 36.2717V36.335L30.1733 19.9642C30.4266 20.0546 30.6979 20.0998 30.9692 20.0998C30.9783 20.0998 30.9964 20.0998 31.0054 20.0998C31.0506 20.0998 31.0959 20.0908 31.1411 20.0908L36.4322 35.919ZM32.5701 16.1111L32.7149 17.712C32.7601 18.2457 32.5973 18.7522 32.2626 19.123C31.9461 19.4757 31.4938 19.6747 31.0054 19.6838C29.911 19.7019 28.9342 18.7884 28.8437 17.6578L28.7081 16.0297L32.5701 16.1111ZM38.0693 50.7884L38.2412 51.3402C38.0512 51.512 37.9155 51.7381 37.8341 51.9823L21.2552 52.7963C19.8624 52.8687 18.5961 51.9461 18.2434 50.6075V50.5985L6.39484 13.5153C6.2049 12.7736 6.34962 12.0048 6.79281 11.4803C6.85612 11.4079 6.92848 11.3355 7.00083 11.2722C7.19982 11.1185 7.3988 11.0009 7.59778 10.9195C7.84199 10.8381 8.11333 10.8109 8.39371 10.829L27.0167 12.0953C27.6317 12.1405 28.1925 12.439 28.5724 12.9003L23.9687 12.7103L19.0122 12.5023L13.6487 12.2762L7.9053 12.032C7.83294 12.0048 7.76059 12.0048 7.69727 12.0591C7.65205 12.0953 7.62492 12.1496 7.62492 12.2038C7.62492 12.2129 7.62492 12.2129 7.62492 12.2219C7.62492 12.2581 7.63396 12.2943 7.65205 12.3305L8.53843 15.1253H8.5113L18.7951 47.1434C18.9217 47.6228 19.3197 47.9755 19.8081 48.0479C19.8714 48.0569 19.9347 48.066 19.998 48.066C20.0252 48.066 20.0523 48.066 20.0704 48.066L38.3045 46.9897L38.7838 47.3334L38.2321 50.2367C38.1959 50.2638 38.1688 50.3 38.1417 50.3452C38.0512 50.4719 38.0241 50.6347 38.0693 50.7884ZM38.4854 50.5623C38.4944 50.5442 38.5215 50.5171 38.5758 50.508L39.6069 50.4176H39.6159C39.6612 50.4176 39.6883 50.4447 39.7064 50.4538C39.7245 50.4719 39.7426 50.499 39.7426 50.5533L39.5979 51.7833C39.5888 51.8467 39.5436 51.8919 39.4893 51.8919L38.9557 51.9371C38.9014 51.9461 38.8471 51.91 38.8291 51.8467L38.4673 50.6618C38.4492 50.6256 38.4673 50.5804 38.4854 50.5623ZM39.3356 53.1943C38.9195 53.2305 38.5487 52.923 38.5125 52.516C38.5034 52.4074 38.5215 52.2989 38.5577 52.1994C38.6572 52.3079 38.7929 52.3712 38.9466 52.3712C38.9647 52.3712 38.9828 52.3712 38.9919 52.3712L39.5255 52.326C39.6883 52.3079 39.833 52.2175 39.9235 52.0818C39.9777 52.1723 40.0139 52.2808 40.023 52.3893C40.0591 52.7873 39.7516 53.1581 39.3356 53.1943ZM42.3565 52.9772L40.6199 51.7833C40.4933 51.5301 40.3124 51.3221 40.0772 51.1773L40.1405 50.6075C40.1405 50.5804 40.1405 50.5442 40.1405 50.5171L42.6097 50.2367L42.5012 52.8868C42.456 52.8958 42.4017 52.932 42.3565 52.9772ZM42.6278 53.2938C42.6369 53.2757 42.664 53.2486 42.7183 53.2395L43.7494 53.1491H43.7584C43.8036 53.1491 43.8308 53.1762 43.8489 53.1853C43.8669 53.2034 43.885 53.2305 43.885 53.2848L43.7403 54.5148C43.7313 54.5781 43.6861 54.6234 43.6318 54.6234L43.0981 54.6686C43.0439 54.6776 42.9896 54.6415 42.9715 54.5781L42.6097 53.3933C42.5916 53.3481 42.6097 53.3119 42.6278 53.2938ZM43.478 55.9168C43.062 55.9529 42.7002 55.6454 42.655 55.2294C42.6459 55.1208 42.664 55.0123 42.6911 54.9128C42.7906 55.0213 42.9263 55.0846 43.0801 55.0846C43.0981 55.0846 43.1162 55.0846 43.1253 55.0846L43.6589 55.0394C43.8217 55.0213 43.9664 54.9309 44.0569 54.7952C44.1112 54.8857 44.1473 54.9942 44.1564 55.1027C44.2016 55.5188 43.8941 55.8806 43.478 55.9168ZM44.1564 52.9139C44.1473 52.9049 44.1473 52.8958 44.1383 52.8958C44.0297 52.7783 43.8669 52.724 43.7041 52.733L42.9173 52.8054L43.0258 50.1734L46.2457 49.8026L46.4085 50.3271C46.0829 50.6347 45.893 51.0779 45.9382 51.5663C45.9744 52.0095 46.2095 52.3893 46.5442 52.6335L44.1564 52.9139ZM46.6437 49.5583C46.6527 49.5403 46.6798 49.5131 46.7341 49.5041L47.7652 49.4136H47.7742C47.8195 49.4136 47.8466 49.4408 47.8647 49.4498C47.8828 49.4679 47.9009 49.495 47.9009 49.5493L47.7562 50.7794C47.7471 50.8427 47.7019 50.8879 47.6476 50.8879L47.114 50.9331C47.0507 50.9422 47.0054 50.906 46.9874 50.8427L46.6256 49.6578C46.6165 49.6126 46.6346 49.5764 46.6437 49.5583ZM47.5029 52.1813C47.0868 52.2175 46.7251 51.91 46.6798 51.4939C46.6708 51.3854 46.6889 51.2768 46.716 51.1773C46.8155 51.2859 46.9512 51.3492 47.1049 51.3492C47.123 51.3492 47.1411 51.3492 47.1502 51.3492L47.6838 51.304C47.8466 51.2859 47.9913 51.1954 48.0818 51.0598C48.136 51.1502 48.1722 51.2497 48.1813 51.3673C48.2265 51.7833 47.919 52.1451 47.5029 52.1813ZM50.8223 52.0547C50.8042 52.0909 50.7861 52.118 50.768 52.1542L48.5883 52.4074C48.8415 52.109 48.9772 51.72 48.941 51.304C48.8958 50.8246 48.6335 50.4176 48.2536 50.1734L48.2988 49.8116L52.0795 51.7472L51.2203 51.8286C51.0484 51.8376 50.9128 51.919 50.8223 52.0547ZM51.157 52.2808C51.166 52.2627 51.1931 52.2356 51.2474 52.2265L52.2785 52.1361H52.2875C52.3328 52.1361 52.3599 52.1632 52.378 52.1723C52.3961 52.1904 52.4142 52.2175 52.4142 52.2718L52.2695 53.5018C52.2604 53.5651 52.2152 53.6104 52.1609 53.6104L51.6273 53.6556C51.573 53.6646 51.5187 53.6285 51.5007 53.5651L51.1389 52.3803C51.1298 52.3351 51.1479 52.2989 51.157 52.2808ZM52.0162 54.9128C51.6001 54.949 51.2384 54.6415 51.1931 54.2254C51.1841 54.1169 51.2022 54.0083 51.2293 53.9088C51.3288 54.0174 51.4645 54.0807 51.6182 54.0807C51.6363 54.0807 51.6544 54.0807 51.6635 54.0807L52.1971 54.0355C52.3599 54.0174 52.5046 53.9269 52.5951 53.7913C52.6493 53.8817 52.6855 53.9812 52.6945 54.0988C52.7398 54.5058 52.4323 54.8676 52.0162 54.9128ZM53.0654 51.7833L48.2807 49.3322C48.2627 49.287 48.2355 49.2327 48.1993 49.1966L48.3531 47.659L54.6934 46.7002L53.0654 51.7833ZM54.8291 46.2661L52.1519 46.6731L52.3418 44.62L55.5074 44.1406L54.8291 46.2661ZM55.6431 43.6974L52.378 44.1949L52.5951 41.8161C53.2011 41.7257 53.7709 41.6443 54.2683 41.5629C55.4532 41.382 56.0773 41.2915 56.43 41.2282L55.6431 43.6974ZM56.5657 40.7941C56.1496 40.8755 54.603 41.1106 52.6312 41.4001L52.8935 38.5419L57.5696 37.6375L56.5657 40.7941ZM58.5193 34.6799C58.5193 34.6889 58.5193 34.6889 58.5103 34.6979L57.7505 37.0677L50.1078 33.2056L50.6685 31.1977C50.759 31.2157 50.8494 31.2338 50.9489 31.2338C51.374 31.2338 51.7449 31.0168 51.9619 30.6912L58.1123 33.3593C58.0852 33.4588 58.0671 33.5583 58.0671 33.6668C58.0671 33.9382 58.1575 34.1824 58.3023 34.3814C58.3656 34.4718 58.447 34.5532 58.5374 34.6165L58.5193 34.6799Z" fill="#378FEB"/>
  <path d="M51.8805 53.4657C51.9981 53.4566 52.0885 53.3481 52.0795 53.2305C52.0704 53.1129 51.9709 53.0315 51.8624 53.0315C51.8533 53.0315 51.8533 53.0315 51.8443 53.0315C51.7267 53.0406 51.6363 53.1491 51.6453 53.2757C51.6544 53.3933 51.7629 53.4838 51.8805 53.4657Z" fill="#378FEB"/>
  <path d="M43.3424 54.4334C43.4599 54.4244 43.5504 54.3159 43.5413 54.1983C43.5323 54.0807 43.4328 53.9993 43.3243 53.9993C43.3152 53.9993 43.3152 53.9993 43.3062 53.9993C43.1886 54.0083 43.0981 54.1169 43.1072 54.2435C43.1162 54.352 43.2248 54.4425 43.3424 54.4334Z" fill="#378FEB"/>
  <path d="M47.3672 50.698C47.4848 50.689 47.5752 50.5804 47.5662 50.4628C47.5571 50.3453 47.4576 50.2639 47.3491 50.2639C47.3401 50.2639 47.3401 50.2639 47.331 50.2639C47.2134 50.2729 47.123 50.3814 47.132 50.5081C47.1411 50.6166 47.2496 50.707 47.3672 50.698Z" fill="#378FEB"/>
  <path d="M39.1727 51.7562C39.2903 51.7472 39.3807 51.6386 39.3717 51.5211C39.3626 51.4035 39.2631 51.3221 39.1546 51.3221C39.1455 51.3221 39.1455 51.3221 39.1365 51.3221C39.0189 51.3311 38.9285 51.4397 38.9375 51.5663C38.9466 51.6748 39.0551 51.7653 39.1727 51.7562Z" fill="#378FEB"/>
  <path d="M53.897 24.8393C54.3402 25.2372 54.901 25.4272 55.4889 25.4272C56.3301 25.4272 57.2164 25.0382 57.8857 24.3056C58.4284 23.6996 58.745 22.9489 58.7721 22.1982C58.7992 21.4294 58.5279 20.7511 58.0124 20.2807C56.9451 19.322 55.1542 19.5572 54.0237 20.8144C52.8931 22.0806 52.8388 23.8805 53.897 24.8393ZM54.2588 21.0314C55.2809 19.9009 56.8727 19.6747 57.8134 20.5159C58.2656 20.9229 58.5008 21.5199 58.4736 22.1892C58.4465 22.8675 58.1571 23.5549 57.6596 24.1066C56.6376 25.2372 55.0457 25.4633 54.1051 24.6222C53.1644 23.7629 53.2368 22.153 54.2588 21.0314Z" fill="#378FEB"/>
  <path d="M53.2372 25.5809L53.6894 25.9879C54.2592 26.5035 54.9918 26.7748 55.7968 26.7748C55.9686 26.7748 56.1405 26.7658 56.3123 26.7386C57.2982 26.603 58.2479 26.0874 58.9624 25.2824C60.4639 23.6182 60.5362 21.2395 59.1252 19.9642L58.673 19.5572C57.9856 18.9331 57.054 18.6708 56.05 18.8064C55.0642 18.9421 54.1145 19.4577 53.4 20.2626C51.9076 21.9178 51.8262 24.3056 53.2372 25.5809ZM53.7075 20.534C54.3677 19.8104 55.2179 19.3401 56.1134 19.2135C56.2671 19.1954 56.4209 19.1773 56.5656 19.1773C57.2711 19.1773 57.9042 19.4124 58.4017 19.8556C58.9986 20.3893 59.3061 21.1762 59.279 22.0625C59.2428 22.967 58.8629 23.8624 58.2117 24.586C56.8641 26.0784 54.7567 26.3768 53.5175 25.2643C52.2784 24.1519 52.3598 22.0264 53.7075 20.534Z" fill="#378FEB"/>
  <path d="M54.9558 23.3288L54.6483 23.6906C54.576 23.772 54.585 23.8534 54.6574 23.9258C54.6935 23.9619 54.7297 23.971 54.7749 23.971C54.8202 23.971 54.8563 23.9438 54.8835 23.9077L55.2 23.5278C55.4081 23.6544 55.6071 23.7177 55.8151 23.7087C56.0412 23.6996 56.2402 23.6001 56.403 23.4102C56.5296 23.2564 56.5929 23.0756 56.5839 22.8675C56.5748 22.6505 56.4753 22.4334 56.2944 22.2344L56.7829 21.6555C56.8281 21.7008 56.8914 21.7731 56.9638 21.8726C57.0361 21.9721 57.0904 22.0445 57.1266 22.0806C57.208 22.153 57.2803 22.153 57.3527 22.0625C57.4069 21.9992 57.3798 21.8817 57.2713 21.7098C57.1899 21.5741 57.0994 21.4746 57.018 21.3932L57.009 21.3842L57.208 21.14C57.2713 21.0586 57.2713 20.9862 57.1899 20.9139C57.1537 20.8777 57.1175 20.8687 57.0723 20.8687C57.0271 20.8687 56.9909 20.8958 56.9547 20.932L56.7286 21.2033C56.5387 21.1129 56.3397 21.0676 56.1497 21.0767C55.9417 21.0857 55.7789 21.1581 55.6704 21.2847C55.5528 21.4294 55.5166 21.6013 55.5709 21.8003C55.6161 21.9631 55.7065 22.1078 55.8422 22.2344L55.8513 22.2434L55.1729 23.0484C55.0553 22.9308 54.9739 22.8223 54.9377 22.7138C54.9197 22.6685 54.9106 22.5962 54.8925 22.4876C54.8835 22.4153 54.8563 22.361 54.8202 22.3248C54.7478 22.2525 54.6754 22.2615 54.6031 22.352C54.4132 22.6052 54.5307 22.9218 54.9558 23.3288ZM55.9688 21.5741C56.0955 21.4294 56.2764 21.3932 56.5115 21.4927L56.0864 21.9992C55.9236 21.8003 55.8874 21.6646 55.9688 21.5741ZM56.0683 22.5148C56.2402 22.7861 56.2583 23.0122 56.1226 23.175C56.0502 23.2655 55.9417 23.3107 55.806 23.3198C55.6885 23.3288 55.5618 23.3017 55.4442 23.2564L56.0683 22.5148Z" fill="#378FEB"/>
  <path d="M34.56 13.244C34.8946 13.4158 35.2383 13.4972 35.573 13.4972C35.8352 13.4972 36.0885 13.443 36.3327 13.3435C37.4723 12.8641 37.9336 11.3898 37.3728 10.0512C36.8121 8.7126 35.4282 8.01616 34.2886 8.49553C33.7369 8.73069 33.3208 9.20101 33.1309 9.83414C32.941 10.4492 32.9862 11.1456 33.2575 11.7878C33.5198 12.43 33.9901 12.9546 34.56 13.244ZM33.4203 9.92459C33.5831 9.38191 33.9359 8.9749 34.4062 8.77591C34.6142 8.68547 34.8222 8.64929 35.0393 8.64929C35.8533 8.64929 36.6854 9.23719 37.0834 10.1688C37.5809 11.3536 37.192 12.647 36.2151 13.0631C35.7448 13.2621 35.2112 13.2259 34.7047 12.9726C34.1891 12.7103 33.7731 12.2491 33.5379 11.6702C33.2937 11.0914 33.2485 10.4763 33.4203 9.92459Z" fill="#378FEB"/>
  <path d="M34.3248 13.9947C34.759 14.2208 35.2203 14.3294 35.6635 14.3294C36.0072 14.3294 36.3418 14.266 36.6674 14.1304L37.1468 13.9314C37.8794 13.6239 38.4221 12.9907 38.6844 12.1586C38.9376 11.3446 38.8743 10.4221 38.5216 9.57185C38.1598 8.72165 37.5447 8.03426 36.785 7.64533C36.0072 7.24737 35.1841 7.20214 34.4424 7.50966L33.9631 7.70865C33.2304 8.01617 32.6878 8.64929 32.4255 9.4814C32.1722 10.2954 32.2355 11.218 32.5883 12.0682C32.941 12.9184 33.5651 13.6058 34.3248 13.9947ZM32.8144 9.60803C33.0315 8.8935 33.4927 8.35986 34.1168 8.09757C34.3882 7.97999 34.6685 7.92572 34.958 7.92572C36.0343 7.92572 37.1377 8.70356 37.6533 9.93364C38.3135 11.4893 37.798 13.2078 36.5046 13.7505C35.8805 14.0128 35.175 13.9676 34.5148 13.6329C33.8364 13.2892 33.2937 12.6742 32.9681 11.9144C32.6425 11.1456 32.5883 10.3316 32.8144 9.60803Z" fill="#378FEB"/>
  <path d="M34.5871 10.9376C34.7228 10.9557 34.8675 10.9466 35.0213 10.8924L35.0303 10.8833L35.4102 11.6973C35.2745 11.7426 35.166 11.7697 35.0665 11.7606C35.0303 11.7606 34.967 11.7426 34.8766 11.7154C34.8223 11.6973 34.768 11.6973 34.7228 11.7154C34.6414 11.7516 34.6233 11.8059 34.6595 11.8963C34.768 12.1315 35.0575 12.1586 35.5278 11.9687L35.6996 12.3305C35.7358 12.4119 35.7991 12.439 35.8805 12.4028C35.9167 12.3847 35.9438 12.3666 35.9529 12.3305C35.9619 12.2943 35.9619 12.2581 35.9438 12.2219L35.7629 11.842C35.9348 11.7335 36.0524 11.5888 36.1247 11.435C36.1971 11.2541 36.1881 11.0642 36.1066 10.8743C36.0343 10.7205 35.9167 10.6029 35.7539 10.5396C35.5821 10.4673 35.3831 10.4673 35.166 10.5396L34.8947 9.96076C34.9489 9.94267 35.0213 9.91553 35.1298 9.89744C35.2384 9.87935 35.3107 9.86126 35.3469 9.84317C35.4283 9.807 35.4554 9.75273 35.4193 9.66228C35.3921 9.59897 35.2926 9.58088 35.1117 9.59897C34.9761 9.61706 34.8675 9.64419 34.7771 9.68037H34.768L34.6595 9.43616C34.6233 9.35476 34.56 9.32763 34.4786 9.36381C34.4515 9.3819 34.4243 9.40903 34.4153 9.44521C34.4062 9.48139 34.4062 9.51757 34.4243 9.55374L34.551 9.82508C34.4153 9.94267 34.3068 10.0783 34.2434 10.2321C34.1711 10.3949 34.1711 10.5487 34.2344 10.6753C34.2977 10.82 34.4153 10.9104 34.5871 10.9376ZM35.8353 11.0099C35.8805 11.1004 35.8805 11.1999 35.8353 11.3084C35.7991 11.3989 35.7358 11.4893 35.6544 11.5617L35.3107 10.82C35.5821 10.7748 35.7539 10.8381 35.8353 11.0099ZM34.6776 10.1055L34.9128 10.621C34.7138 10.6662 34.5871 10.6482 34.5419 10.5487C34.4786 10.4039 34.5148 10.2502 34.6776 10.1055Z" fill="#378FEB"/>
  <path d="M7.6158 32.9614C6.73847 32.7081 5.87922 32.8257 5.19183 33.296L4.73959 33.6035C4.0522 34.0648 3.61805 34.8246 3.51856 35.729C3.42811 36.6154 3.67232 37.547 4.20596 38.352C4.74864 39.1479 5.51744 39.7268 6.37668 39.971C6.67515 40.0524 6.97363 40.0976 7.26306 40.0976C7.81478 40.0976 8.34842 39.9439 8.80065 39.6364L9.25289 39.3288C10.6639 38.3791 10.899 36.2446 9.77748 34.5894C9.25289 33.7844 8.48409 33.2146 7.6158 32.9614ZM9.03582 38.9851C7.81478 39.8082 6.00585 39.2836 5.01093 37.8093C4.01602 36.335 4.20596 34.4628 5.42699 33.6397C5.80686 33.3774 6.2591 33.2508 6.73847 33.2508C6.99172 33.2508 7.24497 33.287 7.50727 33.3593C8.27606 33.5764 8.96346 34.092 9.45187 34.8155C10.4468 36.2898 10.2568 38.1621 9.03582 38.9851Z" fill="#378FEB"/>
  <path d="M7.52544 33.7845C6.86518 33.5945 6.21396 33.685 5.68937 34.0377C4.6221 34.7613 4.4412 36.3712 5.2914 37.6285C5.69841 38.2345 6.28632 38.6686 6.93753 38.8585C7.16365 38.9219 7.38977 38.958 7.60684 38.958C8.03194 38.958 8.42991 38.8404 8.7736 38.6053C9.2982 38.2525 9.6238 37.6827 9.69616 37.0044C9.76852 36.3351 9.57858 35.6296 9.17157 35.0236C8.75552 34.3995 8.17666 33.9654 7.52544 33.7845ZM9.3796 36.9592C9.31628 37.5471 9.0359 38.0445 8.59271 38.343C8.14952 38.6415 7.58875 38.7138 7.01894 38.551C6.44008 38.3882 5.91549 37.9902 5.54465 37.4476C4.79395 36.3351 4.92962 34.9151 5.86122 34.291C6.15065 34.092 6.49434 33.9925 6.85613 33.9925C7.04607 33.9925 7.24505 34.0196 7.44404 34.0739C8.0229 34.2367 8.54749 34.6347 8.91832 35.1774C9.28011 35.7291 9.44291 36.3622 9.3796 36.9592Z" fill="#378FEB"/>
  <path d="M8.14945 37.1129C8.29417 36.9591 8.38462 36.7873 8.42079 36.6154C8.45697 36.4164 8.40271 36.2265 8.26704 36.0547C8.1585 35.9099 8.01378 35.8285 7.83289 35.8014C7.63391 35.7743 7.43492 35.8195 7.2269 35.9371L6.81084 35.4034C6.85607 35.3673 6.92842 35.3311 7.03696 35.2859C7.13645 35.2406 7.20881 35.2045 7.24499 35.1773C7.32639 35.1231 7.33543 35.0597 7.27212 34.9783C7.2269 34.9241 7.11836 34.9241 6.94651 34.9874C6.81989 35.0326 6.71135 35.0869 6.6209 35.1502H6.61186L6.44001 34.9331C6.38574 34.8608 6.31338 34.8517 6.24103 34.906C6.20485 34.9331 6.18676 34.9602 6.17771 35.0055C6.16867 35.0417 6.18676 35.0778 6.20485 35.114L6.40383 35.3673C6.28625 35.521 6.21389 35.6838 6.18676 35.8466C6.15962 36.0366 6.18676 36.1813 6.27721 36.2989C6.3767 36.4345 6.52141 36.4888 6.70231 36.4798C6.84702 36.4707 6.99174 36.4164 7.13645 36.326L7.14549 36.3169L7.72435 37.0586C7.59773 37.14 7.48919 37.1852 7.3897 37.2033C7.35352 37.2124 7.28117 37.2124 7.19072 37.2033C7.12741 37.1943 7.07314 37.2124 7.03696 37.2395C6.9646 37.2938 6.95556 37.3571 7.01887 37.4385C7.18167 37.6556 7.48919 37.6103 7.92334 37.3119L8.18563 37.6465C8.24895 37.7189 8.31226 37.737 8.39366 37.6737C8.42984 37.6465 8.44793 37.6194 8.45697 37.5832C8.46602 37.547 8.44793 37.5108 8.42079 37.4747L8.14945 37.1129ZM6.57568 36.0908C6.46714 35.9552 6.47619 35.7924 6.60281 35.6024L6.9646 36.0727C6.77466 36.1722 6.63899 36.1813 6.57568 36.0908ZM8.0771 36.5521C8.05901 36.6606 8.02283 36.7601 7.95047 36.8596L7.41684 36.1813C7.68818 36.0818 7.87811 36.0999 8.00474 36.2536C8.06805 36.335 8.08614 36.4345 8.0771 36.5521Z" fill="#378FEB"/>
  <path d="M35.5548 24.2876C35.5548 24.2966 35.5458 24.3057 35.5458 24.3147C35.5458 24.3237 35.5458 24.3237 35.5458 24.3328C35.5458 24.3418 35.5458 24.3509 35.5458 24.3599C35.5458 24.369 35.5458 24.369 35.5458 24.378C35.5458 24.3871 35.5458 24.3961 35.5548 24.4051V24.4142C35.5639 24.4323 35.5639 24.4413 35.5729 24.4504C35.582 24.4594 35.591 24.4685 35.6001 24.4775L35.6091 24.4865C35.6182 24.4865 35.6181 24.4956 35.6272 24.4956L39.2722 27.0643C39.2993 27.0824 39.3355 27.1005 39.3717 27.1005L49.5741 27.9778C49.5831 27.9778 49.5831 27.9778 49.5922 27.9778C49.6103 27.9778 49.6284 27.9778 49.6464 27.9687H49.6555C49.6736 27.9597 49.6917 27.9597 49.7007 27.9416C49.7007 27.9416 49.7098 27.9416 49.7098 27.9326C49.7188 27.9235 49.7369 27.9145 49.7459 27.8964C49.7459 27.8964 49.7459 27.8964 49.755 27.8873C49.764 27.8693 49.7731 27.8602 49.7821 27.8421C49.7821 27.8421 49.7821 27.8421 49.7821 27.8331C49.7821 27.8331 49.7821 27.8331 49.7821 27.824C49.7912 27.8059 49.7912 27.7879 49.7912 27.7698L51.0212 15.4509C51.0303 15.3695 50.9851 15.2881 50.9127 15.2519C50.8403 15.2158 50.7499 15.2158 50.6866 15.27C50.2977 15.5685 49.9721 15.6589 49.7098 15.5414C49.6193 15.5052 49.5379 15.4419 49.4656 15.3695C49.7912 13.8048 49.9992 11.7607 49.1761 10.6572C48.8234 10.1869 48.3259 9.92461 47.6838 9.87035C47.4034 9.85226 47.123 9.90652 46.8607 10.0332C46.5079 9.5176 45.9834 9.21913 45.314 9.17391C44.699 9.12868 44.084 9.45429 43.478 10.1507C42.673 11.0733 41.9856 12.5566 41.5062 13.7957C40.6289 13.452 40.1948 13.0269 40.1857 13.0179C40.1405 12.9727 40.0681 12.9455 39.9958 12.9636C39.9234 12.9817 39.8692 13.0269 39.8511 13.0903L35.5548 24.2423C35.5639 24.2876 35.5639 24.2876 35.5548 24.2876ZM49.556 15.9665C49.8635 16.1021 50.2072 16.075 50.5781 15.8851L49.4294 27.408L46.4085 24.993L48.5611 14.4922C48.7329 15.0801 49.0314 15.7403 49.556 15.9665ZM47.6566 10.3316C48.1812 10.3678 48.5701 10.5758 48.8505 10.9557C49.3842 11.6793 49.4927 13.0722 49.149 14.9263C48.9138 14.4017 48.7962 13.7324 48.7691 13.4068C48.7691 13.3887 48.7601 13.3706 48.7601 13.3616V13.3525C48.751 13.3435 48.751 13.3254 48.742 13.3164C48.742 13.3164 48.742 13.3073 48.7329 13.3073C48.7239 13.2892 48.7148 13.2802 48.6968 13.2711C48.6877 13.2621 48.6696 13.2531 48.6515 13.244H48.6425C48.6244 13.235 48.6154 13.235 48.5973 13.235C48.5973 13.235 48.5973 13.235 48.5882 13.235C48.5701 13.235 48.5611 13.235 48.543 13.235C48.543 13.235 48.543 13.235 48.534 13.235H48.5249C48.5159 13.235 48.4978 13.244 48.4887 13.244H48.4797C48.0636 13.4249 47.6657 13.5787 47.2767 13.7053C47.4305 12.5747 47.4576 11.3356 47.0597 10.4492C47.2587 10.3588 47.4576 10.3135 47.6566 10.3316ZM46.7069 10.6482C47.0778 11.4984 47.0144 12.7375 46.8426 13.841C45.9381 14.1123 45.1332 14.2389 44.4277 14.2751C44.9342 13.0269 45.7572 11.3446 46.7069 10.6482ZM45.2055 9.62614C45.2326 9.62614 45.2598 9.62614 45.2869 9.62614C45.8296 9.67136 46.2276 9.88844 46.5079 10.2864C45.4588 11.0281 44.5905 12.7375 43.9754 14.2751C43.27 14.2751 42.682 14.1847 42.2208 14.0671C42.1032 14.0399 41.9946 14.0038 41.8952 13.9766C42.6097 12.1134 43.8398 9.62614 45.2055 9.62614ZM40.1314 13.5515C40.3666 13.7324 40.7736 13.9947 41.3706 14.2299C41.0269 15.1886 40.8279 15.9212 40.846 15.9936C40.8731 16.1021 40.9816 16.1745 41.0902 16.1474C41.1806 16.1293 41.2439 16.0479 41.253 15.9574C41.2801 15.8127 41.461 15.1796 41.7595 14.3565C41.868 14.3927 41.9766 14.4198 42.0941 14.456C42.6187 14.5917 43.2699 14.6912 44.0659 14.6912C44.1021 14.7002 44.1473 14.7002 44.1835 14.6912C44.9342 14.6731 45.7934 14.5645 46.7702 14.2841C46.5532 15.4238 46.2547 16.3282 46.2456 16.3463C46.2095 16.4549 46.2637 16.5725 46.3723 16.6086C46.3904 16.6177 46.4175 16.6177 46.4356 16.6177C46.517 16.6177 46.5984 16.5634 46.6346 16.482C46.6617 16.3916 47.0054 15.3876 47.2134 14.1485C47.5571 14.0399 47.9189 13.9133 48.2897 13.7596L46.0195 24.8574L36.0523 24.17L40.1314 13.5515Z" fill="#378FEB"/>
  <path d="M24.9547 34.2358C25.4085 33.9738 25.564 33.3935 25.302 32.9396C25.04 32.4858 24.4596 32.3303 24.0058 32.5923C23.5519 32.8543 23.3964 33.4347 23.6584 33.8885C23.9205 34.3424 24.5008 34.4979 24.9547 34.2358Z" stroke="#378FEB" stroke-width="0.632606"/>
  <path d="M28.7897 32.0217C29.2435 31.7597 29.399 31.1794 29.137 30.7255C28.8749 30.2716 28.2946 30.1161 27.8407 30.3782C27.3869 30.6402 27.2314 31.2206 27.4934 31.6744C27.7555 32.1283 28.3358 32.2838 28.7897 32.0217Z" stroke="#378FEB" stroke-width="0.632606"/>
  <path d="M16.1746 27.2521L17.2703 26.6195L22.6693 31.5376L27.0499 29.0084" stroke="#378FEB" stroke-width="0.632606" stroke-linecap="round" stroke-linejoin="round"/>
  <path d="M21.4513 30.4148L18.4994 27.7362L25.3514 23.7802C25.3948 23.7551 25.4435 23.7407 25.4936 23.7381C25.5437 23.7355 25.5937 23.7449 25.6394 23.7654C25.6851 23.7859 25.7254 23.8171 25.7567 23.8562C25.7881 23.8953 25.8097 23.9414 25.8197 23.9905L26.488 27.257C26.5013 27.322 26.4938 27.3896 26.4666 27.4501C26.4395 27.5106 26.3939 27.5611 26.3365 27.5943L21.4513 30.4148Z" stroke="#378FEB" stroke-width="0.632606" stroke-linecap="round" stroke-linejoin="round"/>
</svg>