<svg xmlns="http://www.w3.org/2000/svg" width="24" height="25" viewBox="0 0 24 25" fill="none">
  <path d="M14.1186 8.45013H14.111L14.1035 8.45045C13.9911 8.45529 13.8915 8.43254 13.8279 8.40085C13.816 8.39493 13.8068 8.38939 13.7997 8.38463V2.41449C13.8066 2.40988 13.8156 2.40453 13.827 2.39881C13.8905 2.3672 13.9901 2.34458 14.1024 2.34976L14.1105 2.35013H14.1186H16.4596H16.4671L16.4746 2.34981C16.587 2.34497 16.6866 2.36772 16.7502 2.39941C16.7621 2.40532 16.7714 2.41086 16.7784 2.41562V4.7191C16.7715 4.72371 16.7626 4.72906 16.7511 4.73478C16.6877 4.76639 16.588 4.78901 16.4757 4.78383L16.4676 4.78346H16.4596H15.2891H14.9391V5.13346V8.38577C14.9322 8.39038 14.9232 8.39573 14.9117 8.40145L14.9391 8.4563L14.9117 8.40145C14.8483 8.43305 14.7486 8.45568 14.6363 8.4505L14.6283 8.45013H14.6202H14.1186Z" stroke="#B3DFFF" stroke-width="0.7"/>
  <path d="M13.3344 6.31673C10.8344 6.27506 8.06641 6.30206 8.06641 6.30206M8.52674 15.1001L19.5677 15.0681V10.4014C19.5677 8.60139 18.5801 6.92739 17.1344 6.53473C16.6061 6.44043 16.071 6.38882 15.5344 6.38039" stroke="#B3DFFF" stroke-linecap="round" stroke-linejoin="round"/>
  <path d="M11.5345 10.4013V14.3346C11.5407 14.4313 11.5273 14.5283 11.4951 14.6197C11.463 14.7111 11.4127 14.7951 11.3474 14.8667C11.282 14.9383 11.203 14.9959 11.1148 15.0362C11.0267 15.0765 10.9313 15.0987 10.8345 15.1013H5.10115C5.00695 15.0949 4.91494 15.07 4.83039 15.028C4.74584 14.986 4.67043 14.9277 4.60848 14.8565C4.54653 14.7853 4.49927 14.7025 4.46941 14.6129C4.43955 14.5234 4.42768 14.4288 4.43448 14.3346V10.0679C4.45766 9.48197 4.60657 8.90783 4.87113 8.38446C5.13569 7.86109 5.50971 7.40073 5.96781 7.03461C6.5386 6.55925 7.25834 6.29967 8.00114 6.30128C8.22471 6.30702 8.44754 6.32931 8.66781 6.36794C10.3011 6.73461 11.5345 8.40128 11.5345 10.4013Z" stroke="#B3DFFF" stroke-miterlimit="10"/>
  <path d="M13.1011 21.0011V15.0854L10.8301 15.0884L10.8344 16.6678V21.0011" stroke="#B3DFFF" stroke-linecap="round" stroke-linejoin="round"/>
</svg>