<svg xmlns="http://www.w3.org/2000/svg" width="64" height="64" viewBox="0 0 64 64" fill="none">
  <path d="M56.2824 38.3879L55.5248 36.6987C54.5341 37.2458 53.3742 37.353 52.1022 37.1696L52.3525 39.0399C53.7406 39.256 55.058 39.0816 56.2824 38.3879Z" fill="#378FEB"/>
  <path d="M33.0932 31.7549L33.7015 32.1061C33.8167 32.1726 33.9095 32.1197 33.9098 31.9889L33.9129 30.9065C33.9133 30.7756 33.8211 30.616 33.7059 30.5494L33.0976 30.1982C32.9837 30.1325 32.8896 30.1846 32.8892 30.3154L32.8861 31.3978C32.8857 31.5287 32.9792 31.6891 33.0932 31.7549Z" fill="#378FEB"/>
  <path d="M34.7679 32.7219L35.3762 33.0731C35.4915 33.1396 35.5842 33.0868 35.5846 32.9559L35.5877 31.8735C35.588 31.7426 35.4959 31.583 35.3807 31.5165L34.7723 31.1653C34.6584 31.0995 34.5643 31.1516 34.564 31.2825L34.5609 32.3649C34.5605 32.4958 34.654 32.6562 34.7679 32.7219Z" fill="#378FEB"/>
  <path d="M29.7432 29.8674L30.3515 30.2186C30.4667 30.2851 30.5595 30.2323 30.5598 30.1014L30.5629 29.019C30.5633 28.8881 30.4711 28.7285 30.3559 28.662L29.7476 28.3108C29.6337 28.245 29.5396 28.2971 29.5392 28.428L29.5362 29.5104C29.5358 29.6413 29.6293 29.8016 29.7432 29.8674Z" fill="#378FEB"/>
  <path d="M28.0684 28.9159L28.6767 29.2671C28.7919 29.3336 28.8847 29.2808 28.8851 29.1499L28.8882 28.0675C28.8885 27.9366 28.7964 27.777 28.6811 27.7105L28.0728 27.3592C27.9589 27.2935 27.8648 27.3456 27.8644 27.4764L27.8614 28.5589C27.861 28.6897 27.9545 28.8501 28.0684 28.9159Z" fill="#378FEB"/>
  <path d="M36.4428 33.6889L37.0512 34.0401C37.1664 34.1066 37.2591 34.0538 37.2595 33.9229L37.2626 32.8405C37.263 32.7096 37.1708 32.55 37.0555 32.4835L36.4472 32.1323C36.3333 32.0665 36.2392 32.1186 36.2389 32.2495L36.2358 33.3319C36.2354 33.4627 36.3289 33.6231 36.4428 33.6889Z" fill="#378FEB"/>
  <path d="M38.1177 34.6559L38.7261 35.0071C38.8413 35.0737 38.9341 35.0208 38.9344 34.8899L38.9375 33.8075C38.9379 33.6767 38.8457 33.5171 38.7305 33.4505L38.1221 33.0993C38.0083 33.0335 37.9142 33.0856 37.9138 33.2165L37.9107 34.2989C37.9103 34.4298 38.0039 34.5902 38.1177 34.6559Z" fill="#378FEB"/>
  <path d="M39.7927 35.6229L40.401 35.9741C40.5162 36.0406 40.609 35.9878 40.6093 35.8569L40.6124 34.7745C40.6128 34.6436 40.5206 34.484 40.4054 34.4175L39.7971 34.0663C39.6832 34.0005 39.5891 34.0526 39.5887 34.1835L39.5856 35.2659C39.5853 35.3968 39.6787 35.5572 39.7927 35.6229Z" fill="#378FEB"/>
  <path d="M41.4675 36.59L42.0759 36.9412C42.1911 37.0077 42.2839 36.9548 42.2843 36.824L42.2873 35.7415C42.2877 35.6107 42.1955 35.4511 42.0803 35.3845L41.472 35.0333C41.3581 34.9676 41.264 35.0197 41.2636 35.1505L41.2605 36.2329C41.2602 36.3638 41.3537 36.5242 41.4675 36.59Z" fill="#378FEB"/>
  <path d="M43.1425 37.5569L43.7508 37.9081C43.866 37.9747 43.9588 37.9218 43.9591 37.7909L43.9622 36.7085C43.9626 36.5777 43.8705 36.4181 43.7552 36.3515L43.1469 36.0003C43.033 35.9345 42.9389 35.9866 42.9385 36.1175L42.9355 37.1999C42.9351 37.3308 43.0286 37.4912 43.1425 37.5569Z" fill="#378FEB"/>
  <path d="M44.8174 38.524L45.4257 38.8752C45.5409 38.9417 45.6337 38.8889 45.6341 38.758L45.6371 37.6756C45.6375 37.5447 45.5454 37.3851 45.4301 37.3186L44.8218 36.9673C44.7079 36.9016 44.6138 36.9537 44.6134 37.0845L44.6104 38.167C44.61 38.2978 44.7035 38.4582 44.8174 38.524Z" fill="#378FEB"/>
  <path d="M9.42897 52.2048C9.42897 52.257 9.45724 52.3055 9.50223 52.332C20.1526 58.5125 19.5362 58.2252 19.6642 58.1516L25.557 54.7495C25.6026 54.7232 25.6309 54.6742 25.6309 54.6211L25.6112 48.3773C25.6112 48.3608 25.604 48.3462 25.5988 48.3311C25.5957 48.3222 25.5961 48.3122 25.5915 48.3041C25.5852 48.2931 25.5738 48.2862 25.5648 48.2771C25.5558 48.268 25.5493 48.2567 25.538 48.2501C14.9075 42.1068 15.5185 42.3489 15.376 42.4308L9.48377 45.8329C9.4382 45.8591 9.40994 45.9079 9.40994 45.9604C9.40994 45.9602 9.40994 45.9605 9.40994 45.9604C9.40994 45.9605 9.40994 45.9611 9.40994 45.9612L9.42897 52.2048ZM19.5715 51.6091L9.85236 45.9609L11.8304 44.8189L21.5495 50.4671L19.5715 51.6091ZM9.70585 46.2178L19.4236 51.8652C19.4238 51.9244 19.4431 58.1528 19.4419 57.7667L9.72431 52.1191L9.70585 46.2178ZM19.7374 57.7686C19.7372 57.7055 19.718 51.4827 19.7192 51.8649L21.6967 50.7232V52.625L22.527 51.3093L23.3574 51.6533V49.7644L25.3165 48.6332L25.3355 54.5366L19.7374 57.7686ZM15.4499 42.7293L25.1688 48.3776L23.2103 49.5083L13.4911 43.8601L15.4499 42.7293Z" fill="#378FEB"/>
  <path d="M20.3866 55.1485L20.3901 56.7304L22.8584 55.3054L22.8531 53.7235L20.3866 55.1485Z" fill="#378FEB"/>
  <path d="M31.2918 55.4027C31.2918 55.4549 31.3201 55.5033 31.3651 55.5299C31.6903 55.7189 36.738 58.6519 37.1351 58.8827C37.1806 58.9083 37.2357 58.9095 37.2827 58.8824C44.2034 54.8527 43.9543 55.1086 43.9543 54.9447C43.9255 47.8617 43.9735 47.8925 43.8597 47.8264C37.8106 44.3451 38.0847 44.3918 37.9421 44.4739L31.3443 48.2832C31.2988 48.3095 31.2705 48.3582 31.2705 48.4107C31.2705 48.4106 31.2705 48.4108 31.2705 48.4107C31.2705 48.4108 31.2705 48.4114 31.2705 48.4116L31.2918 55.4027ZM37.1872 51.5926L31.7129 48.4113L33.9456 47.1223L39.42 50.3037L37.1872 51.5926ZM31.5664 48.6681L37.0393 51.8487C37.0397 51.9589 37.0602 58.4135 37.0605 58.4975L31.5872 55.317L31.5664 48.6681ZM37.356 58.4994C37.3538 57.8171 37.3638 60.9629 37.3349 51.8485L39.5671 50.5598V52.7097L40.4969 51.2365L41.4266 51.6217V49.4863L43.6382 48.2095L43.659 54.8602L37.356 58.4994ZM38.0159 44.7724L43.4905 47.9538L41.2796 49.2301L35.8051 46.0487L38.0159 44.7724Z" fill="#378FEB"/>
  <path d="M4.00508 19.4676C4.10734 19.5636 3.56108 19.5258 12.799 18.9076C16.3145 22.7865 20.7957 26.3559 26.8947 30.1346C27.6479 30.6023 29.4026 31.6321 31.5876 32.9003C31.5181 32.9162 10.7918 37.6436 10.8524 37.6298C10.8418 37.6334 10.8305 37.634 10.8209 37.6399C10.8133 37.6448 10.8095 37.653 10.8031 37.659C10.7827 37.6772 10.7724 37.6916 10.7628 37.7253C10.76 37.7344 10.7527 37.741 10.7516 37.7507C10.7496 38.0485 10.7442 38.8282 10.7464 38.7676C10.7459 38.8259 10.7799 38.8787 10.833 38.9029L15.0853 40.8402C15.6125 41.0821 16.2557 41.2105 16.9116 41.2105C17.3715 41.2105 17.6183 41.1551 18.5558 41.0543L21.7025 42.836C21.7498 43.2772 21.9278 43.6028 22.2259 43.7753C22.2857 43.8101 25.5127 45.683 25.4529 45.6483C25.5411 45.6842 25.662 45.7772 25.9487 45.7772C27.6903 45.7772 29.3288 42.2818 27.8822 41.4496C27.7161 41.354 25.7115 40.1888 25.7715 40.2231L28.4446 39.9152L31.0581 41.4177C31.1078 41.8555 31.284 42.1933 31.582 42.3696C34.7729 44.1721 34.8135 44.3717 35.3048 44.3709C37.0467 44.3709 38.6852 40.8756 37.2383 40.0433C36.6317 39.6943 35.5276 39.0557 35.5908 39.092L41.2116 38.4445C44.8621 40.5374 47.7613 42.1912 47.7821 42.2003C49.8439 43.0848 51.3333 43.3958 51.8395 43.5393V44.1416C51.5227 44.3487 51.4252 44.3286 51.4108 44.4638L51.3328 44.5106C51.2479 44.5175 51.1642 44.5376 51.0741 44.5829C51.0149 44.6176 50.4327 44.9584 50.492 44.9237C50.2624 45.0584 50.1356 45.3259 50.1344 45.6789C50.1321 46.5906 50.9533 47.6536 51.6982 47.6536C51.8798 47.6536 51.9712 47.5917 52.0322 47.5674C52.5375 47.2426 52.6887 47.2606 52.8444 46.9751C52.9012 47.0258 52.962 47.0268 53.0134 46.9966C53.0726 46.9624 53.6546 46.6255 53.5954 46.6598C53.825 46.5262 53.9524 46.2583 53.9542 45.905C53.9542 45.9047 53.9542 45.9053 53.9542 45.905C53.9566 44.9588 53.0078 43.7429 52.2152 43.9546L52.2168 43.6265C53.9926 44.018 55.8162 44.2196 57.6637 44.2088C58.9351 44.2088 59.7922 43.8927 60.2116 43.2692C60.9571 42.1595 60.0925 40.4764 59.4779 39.2902C57.576 35.68 54.3154 32.9211 50.863 30.7359C50.3884 30.4275 50.2499 30.3585 50.0614 30.2368L50.5393 28.8166C50.599 28.8515 52.8464 30.1654 52.7867 30.1305C54.0092 30.8476 55.7744 28.7126 55.77 27.0958C55.7683 26.5475 55.5739 26.1342 55.2227 25.931C55.2224 25.9308 55.2224 25.9303 55.222 25.9301C55.1627 25.8945 52.059 24.0872 52.1184 24.1246L52.6914 22.4222C53.0392 22.6247 55.1182 23.8353 54.9855 23.758C54.9865 23.7586 54.9876 23.7583 54.9885 23.7588C54.9893 23.7593 54.9899 23.7602 54.9907 23.7606C56.1448 24.4252 57.9723 22.4408 57.9677 20.7271C57.9649 19.8303 57.4777 19.623 57.4249 19.5622C57.4249 19.5619 57.4238 19.5619 57.4238 19.5616L54.2702 17.7309C54.7144 16.3609 54.7929 16.2962 54.7929 15.9983C54.7929 15.9388 54.7342 15.1062 54.7381 15.1655C54.7337 14.7446 54.494 14.3396 54.0592 14.0241L50.698 11.5729C50.6657 11.5492 50.623 11.54 50.5855 11.5469C50.5457 11.5539 50.5105 11.5766 50.4886 11.6098L41.3033 25.2708C34.1468 21.2168 27.1908 17.204 19.5519 14.128C20.795 11.0903 20.778 11.2297 20.7532 11.1397C20.6392 10.7236 20.6867 10.8873 20.6642 10.837C20.6533 10.8128 20.6391 10.7918 20.6179 10.7768C20.6154 10.7749 20.6152 10.7714 20.6125 10.7697L19.7795 10.2499C19.7276 10.2176 19.6607 10.2205 19.6123 10.2571C19.6123 10.2571 17.9543 11.5076 16.457 12.6306C13.8881 5.39489 14.056 5.82318 13.9876 5.7905L12.564 5.11215C12.5167 5.08936 12.4608 5.09369 12.4175 5.1234L12.0928 5.3449C12.0861 5.34937 12.0834 5.35701 12.0777 5.36238C12.0653 5.37403 12.0527 5.38528 12.0451 5.40024C12.0405 5.40932 12.0403 5.41956 12.0377 5.42948C12.0343 5.44199 12.0282 5.45363 12.0282 5.4669V11.636C11.1577 11.4351 10.1402 11.1679 9.43936 11.7116C8.94386 12.0958 8.77428 12.713 8.94502 13.4704C8.94502 13.4779 8.94999 13.4843 8.95115 13.4917C8.95187 13.4966 8.94841 13.5009 8.94963 13.5058C9.19073 14.4802 9.77305 15.2137 10.4675 16.117C3.03789 18.6055 3.60428 18.3853 3.55447 18.4763C3.5478 18.4882 3.53868 18.4988 3.53554 18.5124C3.53468 18.5163 3.53648 18.5201 3.53594 18.5241C3.53547 18.5272 3.53295 18.5294 3.53266 18.5326C3.51857 18.8571 3.4604 18.9473 3.54477 19.0287L4.00508 19.4676ZM11.2131 16.1794L13.8103 17.991L4.2485 18.8956L3.95562 18.6089C4.27923 18.5006 11.4727 16.0916 11.2131 16.1794ZM39.3306 37.3654C16.0433 39.9781 16.7469 40.2512 15.2093 39.5714C15.1499 39.5443 11.1037 37.695 11.3599 37.8121L31.9625 33.1178C34.2048 34.4181 36.8489 35.9405 39.3306 37.3654ZM22.4087 40.6105C21.9868 41.1906 21.7226 41.8724 21.6933 42.4912L19.0541 40.9969L22.4087 40.6105ZM26.4752 42.8657C26.6996 42.7357 26.8828 42.842 26.8828 43.096C26.8887 43.3559 26.6996 43.669 26.4752 43.8048C26.2507 43.9348 26.0617 43.8285 26.0617 43.5686C26.0617 43.3146 26.2448 42.9956 26.4752 42.8657ZM26.5994 45.2794C26.1678 45.5286 25.6831 45.6012 25.3929 45.1883C25.5927 45.1725 25.7978 45.0995 26.0086 44.9685C27.2274 44.2696 27.8734 42.4536 27.4767 41.6284C27.6438 41.6485 27.6764 41.6833 27.7369 41.708C27.7371 41.7082 27.7381 41.7079 27.7384 41.7081C28.6286 42.229 27.9425 44.504 26.5994 45.2794ZM27.1248 41.3518C25.7846 41.6305 24.5785 43.7676 24.9854 45.0357L22.3741 43.5198C22.1463 43.388 22.0119 43.116 21.9865 42.7339C21.9862 42.7254 21.983 42.7177 21.9809 42.7096C21.9802 42.7065 21.9799 42.704 21.9789 42.7009C21.9779 42.6976 21.978 42.6941 21.9767 42.6909C21.9755 42.6644 21.9755 42.6361 21.9755 42.6079C21.9755 41.9547 22.3028 41.1594 22.8081 40.5645L25.2805 40.2797L27.1248 41.3518ZM31.5256 39.5603C31.243 40.0528 31.0743 40.5813 31.0484 41.0711L28.9388 39.8583L31.5256 39.5603ZM35.8069 41.5957C36.0338 41.4647 36.2184 41.5699 36.2191 41.8236C36.2198 42.0843 36.0364 42.4019 35.8095 42.5329C35.5826 42.6639 35.398 42.5588 35.3973 42.298C35.3966 42.0443 35.58 41.7267 35.8069 41.5957ZM35.9555 43.8734C35.5243 44.1222 35.0382 44.1939 34.7491 43.7825C34.9489 43.7667 35.1539 43.6937 35.3648 43.5627C36.5507 42.8827 37.2341 41.0938 36.8348 40.2228C36.9295 40.2293 37.0223 40.2611 37.0935 40.3023C37.0941 40.3026 37.0948 40.3022 37.0953 40.3025C37.9712 40.817 37.3175 43.0866 35.9555 43.8734ZM36.4787 39.9467C35.1434 40.2245 33.9328 42.3514 34.3415 43.6303L31.7314 42.1147C31.4787 41.9653 31.3368 41.6405 31.3316 41.2021C31.3316 40.6769 31.5424 40.0532 31.8924 39.518L35.0992 39.1486L36.4787 39.9467ZM51.3325 47.2435C50.2244 46.6031 50.0984 44.6155 51.1912 45.2454C51.9867 45.7039 52.3596 47.034 51.8811 47.3122C51.742 47.3906 51.5476 47.3672 51.3325 47.2435ZM52.3702 47.0286C52.5121 46.222 51.845 45.1454 51.1306 44.8915C51.1902 44.8636 51.2472 44.8002 51.3971 44.7989C51.5038 44.7888 51.6348 44.8269 51.7726 44.9103C52.3813 45.2543 52.8594 46.2655 52.6131 46.7916C52.5767 46.8775 52.4351 46.9812 52.3702 47.0286ZM53.6588 45.9038C53.6571 46.1478 53.5821 46.3258 53.4471 46.4045L53.3543 46.4582C53.4787 45.7268 52.9426 44.7061 52.2132 44.3685L52.2137 44.2677C52.7239 43.9868 53.6615 45.0311 53.6588 45.9038ZM53.8114 27.3429C54.0359 27.2129 54.2248 27.3193 54.2248 27.5732C54.2248 27.8331 54.0417 28.1521 53.8114 28.2821C53.5869 28.412 53.4038 28.3057 53.4038 28.0458C53.4038 27.7918 53.5869 27.4787 53.8114 27.3429ZM55.4747 27.0964C55.4798 28.8391 53.4497 30.7024 52.7301 29.6665C53.9929 29.5724 55.3587 27.2745 54.8196 26.1084C54.8788 26.1157 54.9317 26.118 55.0338 26.1693C55.0461 26.1752 55.0599 26.1777 55.0717 26.1845C55.0719 26.1846 55.0716 26.1845 55.0733 26.1851C55.0731 26.185 55.0734 26.1852 55.0733 26.1851C55.3306 26.3334 55.4735 26.6572 55.4747 27.0964ZM54.4624 25.8297C53.1585 26.1035 51.9105 28.206 52.3264 29.5194L50.6355 28.5307L52.0222 24.4105L54.4624 25.8297ZM56.0087 20.9755C56.2391 20.8455 56.4222 20.9518 56.4222 21.2058C56.4222 21.4657 56.2391 21.7847 56.0146 21.9146C55.7842 22.0446 55.6011 21.9383 55.6011 21.6784C55.6011 21.4244 55.7842 21.1054 56.0087 20.9755ZM56.1357 23.3906C55.7433 23.6169 55.2763 23.7089 54.9767 23.3698C54.9737 23.3664 54.9697 23.3646 54.9668 23.3612C54.9516 23.3433 54.9421 23.3185 54.9284 23.2989C55.8607 23.2286 57.1475 21.7341 57.131 20.3257C57.131 20.0903 57.0908 19.9 57.0164 19.7396C58.264 19.89 57.6222 22.5329 56.1357 23.3906ZM56.6606 19.4601C55.3412 19.7401 54.1115 21.836 54.5223 23.1466L52.7875 22.1366L54.174 18.0167L56.6606 19.4601ZM50.6478 11.902L53.8855 14.2629C54.2871 14.5543 54.5536 14.976 54.3989 15.4431C53.741 17.3938 50.0138 28.4435 49.5472 29.8283L49.2282 29.7366C47.4912 28.7043 46.6227 28.2712 41.5613 25.4161L50.6478 11.902ZM19.7092 10.5542L20.3475 10.9524L19.0496 13.9248C17.6705 13.3862 16.7636 13.0698 16.592 13.0066L16.5626 12.9212C17.8829 11.9305 19.3527 10.8227 19.7092 10.5542ZM12.3298 13.5185C12.3287 12.1723 12.324 6.33107 12.3235 5.69676L13.4477 6.21071L16.819 15.9627C16.7591 15.93 12.031 13.3558 12.3298 13.5185ZM9.62048 11.9449C10.218 11.4801 11.2134 11.7451 12.0282 11.9374V13.612C12.0282 13.6662 12.0576 13.7161 12.1054 13.7418C12.1672 13.7753 17.3413 16.5895 17.0137 16.4113C17.0615 16.437 17.1186 16.4352 17.1642 16.4061C17.2233 16.3683 17.6369 16.1035 17.5778 16.1413C17.6366 16.105 17.6626 16.032 17.6389 15.9666C17.6179 15.907 16.6577 13.1932 16.7189 13.3662L17.1636 13.5263C27.0316 17.1449 36.6187 22.9737 47.1226 28.8681C50.8194 30.9202 54.0972 32.9924 56.7089 35.8941C56.2562 36.3548 55.8494 36.5248 55.8494 36.5248L56.5792 38.2956C57.0536 38.073 57.5818 37.7398 57.9815 37.4634C58.4432 38.0995 58.8552 38.7452 59.2027 39.4019C59.2461 39.6043 59.8518 40.8645 59.291 41.6901C58.8375 42.3579 57.8006 42.4838 56.9935 42.4838C54.1034 42.5325 50.5351 41.9166 47.2376 40.4993C45.8838 39.9194 44.5509 39.0653 42.8843 38.0281C32.9261 32.0239 22.0569 27.0735 13.8387 18.8357L14.1889 18.8115C14.261 18.8063 14.3193 18.7492 14.3257 18.6768L14.3747 18.1127C14.3668 18.0858 14.3692 18.0905 14.3682 18.0872C14.3627 18.0284 14.3614 18.0459 14.3455 18.0219C14.343 18.0182 14.3401 18.0148 14.3373 18.0112C14.3336 18.0066 14.3357 17.9994 14.3314 17.9953C14.3291 17.993 14.325 17.9942 14.3226 17.9921C12.8574 16.9666 11.2647 15.8519 11.3238 15.8933C11.2846 15.8665 11.2356 15.8593 11.1923 15.8743L11.1446 15.8903C10.235 14.8144 9.40206 13.6794 9.23325 13.4151C9.08959 12.7504 9.21988 12.2559 9.62048 11.9449Z" fill="#378FEB"/>
  <path d="M39.521 56.0322L39.7194 55.9169V55.1L39.9317 54.9753L39.6133 54.6754L39.2994 55.34L39.5164 55.2154L39.521 56.0322Z" fill="#378FEB"/>
  <path d="M41.5563 54.4077C41.5563 54.0116 41.2737 53.9011 41.0348 54.0338V53.983C41.0348 53.9323 40.9933 53.9138 40.9517 53.9323C40.9148 53.9646 40.8825 54.0107 40.8825 54.0615V54.1123C40.5871 54.32 40.3563 54.7446 40.3563 55.0907L40.924 54.7676V55.4C40.924 55.4692 40.8732 55.5569 40.8132 55.5892C40.744 55.6261 40.6979 55.5984 40.6979 55.5292C40.6979 55.5015 40.6748 55.4876 40.6563 55.5015C40.6379 55.5199 40.6148 55.5477 40.6148 55.58C40.6148 55.6953 40.7071 55.7461 40.8132 55.6861C40.924 55.6261 41.0117 55.4692 41.0117 55.3492L41.0025 54.7261L41.5563 54.4077Z" fill="#378FEB"/>
  <path d="M38.5102 57.0107L39.9502 56.1753V55.9354L38.5102 56.7661V57.0107Z" fill="#378FEB"/>
  <path d="M38.7364 56.4845L38.9348 56.3691V55.5522L39.1517 55.4276L38.8333 55.1276L38.524 55.7876L38.7317 55.6676L38.7364 56.4845Z" fill="#378FEB"/>
</svg>