<svg xmlns="http://www.w3.org/2000/svg" width="65" height="64" viewBox="0 0 65 64" fill="none">
  <path d="M39.0248 27.1951H45.2774C45.9607 27.1951 46.5162 26.6418 46.5162 25.9619V19.7094C46.5162 19.0261 45.9607 18.4706 45.2774 18.4706H39.0248C38.345 18.4706 37.7917 19.0261 37.7917 19.7094V25.9619C37.7917 26.6418 38.345 27.1951 39.0248 27.1951ZM38.955 19.7094C38.955 19.6685 38.9868 19.6338 39.0248 19.6338H45.2774C45.316 19.6338 45.3529 19.6708 45.3529 19.7094V25.9619C45.3529 26 45.3183 26.0318 45.2774 26.0318H39.0248C38.9857 26.0318 38.955 26.0011 38.955 25.9619V19.7094Z" fill="#378FEB"/>
  <path d="M39.0248 38.7306H45.2774C45.9607 38.7306 46.5162 38.1773 46.5162 37.4974V31.2449C46.5162 30.5616 45.9607 30.0061 45.2774 30.0061H39.0248C38.345 30.0061 37.7917 30.5616 37.7917 31.2449V37.4974C37.7917 38.1773 38.345 38.7306 39.0248 38.7306ZM38.955 31.2449C38.955 31.204 38.9868 31.1693 39.0248 31.1693H45.2774C45.316 31.1693 45.3529 31.2063 45.3529 31.2449V37.4974C45.3529 37.5355 45.3183 37.5673 45.2774 37.5673H39.0248C38.9857 37.5673 38.955 37.5366 38.955 37.4974V31.2449Z" fill="#378FEB"/>
  <path d="M10.5816 59.106C10.64 59.106 66.7693 59.1636 63.1688 59.106C63.4903 59.106 63.7505 58.8458 63.7505 58.5243C63.7505 58.3916 63.6983 58.2751 63.6236 58.1773C63.7846 57.8972 63.884 57.5772 63.884 57.2316V44.9042C63.884 43.85 63.0263 42.9924 61.9721 42.9924C60.8264 42.9924 53.9917 42.9924 53.0829 42.9924V12.3442C53.0829 10.9554 51.9531 9.82567 50.5643 9.82567H41.8812L41.7138 9.02252C41.515 8.19665 40.7845 7.61956 39.9365 7.61956H35.8247C35.5487 6.05812 34.1787 4.86816 32.5354 4.86816C30.8962 4.86816 29.529 6.05812 29.253 7.61956H24.7976C23.9564 7.61956 23.2231 8.19381 23.0095 9.03956L22.8456 9.82567H14.1657C12.777 9.82567 11.6472 10.9554 11.6472 12.3442V56.3915C11.6472 56.9793 11.858 57.5137 12.1968 57.9427H10.5816C10.2602 57.9427 10 58.2028 10 58.5243C10 58.8458 10.2602 59.106 10.5816 59.106ZM22.4574 15.1172H42.2693C42.4442 15.1172 42.6101 15.0382 42.7208 14.9025C42.831 14.7667 42.8742 14.5884 42.8384 14.4168L42.8122 14.2912L48.6161 14.2811V42.9924H47.7658C47.286 42.9924 46.8522 43.1759 46.5162 43.4687V42.7811C46.5162 42.0978 45.9607 41.5422 45.2774 41.5422H39.0248C38.3449 41.5422 37.7917 42.0978 37.7917 42.7811V49.0336C37.7917 49.7135 38.3449 50.2667 39.0248 50.2667H45.2774C45.4864 50.2667 45.6805 50.2101 45.8533 50.1188V54.443L16.1145 54.4603L16.0969 14.2924H21.9142L21.8883 14.4168C21.8122 14.7813 22.0916 15.1172 22.4574 15.1172ZM45.3529 42.7811V49.0336C45.3529 49.0717 45.3183 49.1035 45.2774 49.1035H39.0248C38.9856 49.1035 38.955 49.0728 38.955 49.0336V42.7811C38.955 42.7402 38.9868 42.7055 39.0248 42.7055H45.2774C45.316 42.7055 45.3529 42.7424 45.3529 42.7811ZM62.7207 44.9042V57.2316C62.7207 57.5788 62.4785 57.8583 62.1574 57.9427H47.5804C47.2592 57.8583 47.0166 57.5788 47.0166 57.2316V44.9042C47.0166 44.4913 47.3529 44.1556 47.7658 44.1556H51.9139V47.1211C51.9139 47.4154 52.0747 47.6857 52.3342 47.8255C52.5991 47.968 52.9134 47.9481 53.1533 47.7903L54.8692 46.665L56.5846 47.7903C56.8305 47.9527 57.1452 47.9658 57.4036 47.8255C57.6632 47.6857 57.824 47.4154 57.824 47.1211V44.1556H61.9721C62.385 44.1556 62.7207 44.4913 62.7207 44.9042ZM56.6607 46.4492L55.3066 45.5609C55.0396 45.387 54.6965 45.3876 54.4296 45.562L53.0772 46.4492V44.1556H56.6607V46.4492ZM50.5643 10.9889C51.3118 10.9889 51.9196 11.5967 51.9196 12.3442V42.9924H49.7794V14.2811C49.7794 13.646 49.2625 13.1292 48.6275 13.1292H42.5699L42.1237 10.9889H50.5643ZM24.7976 8.78282H29.784C30.1055 8.78282 30.3657 8.52268 30.3657 8.20119C30.3657 7.00498 31.3392 6.03143 32.5354 6.03143C33.7362 6.03143 34.7126 7.00498 34.7126 8.20119C34.7126 8.52268 34.9727 8.78282 35.2942 8.78282H39.9365C40.2443 8.78282 40.5102 8.99298 40.5789 9.27698L41.5536 13.9539H23.1725L24.1427 9.30084C24.2199 8.99582 24.4891 8.78282 24.7976 8.78282ZM12.8105 12.3442C12.8105 11.5967 13.4182 10.9889 14.1657 10.9889H22.603L22.1567 13.1292H16.0969C15.4653 13.1292 14.9513 13.646 14.9513 14.2811V54.4603C14.9513 55.0919 15.4653 55.6059 16.0969 55.6059H45.8533V57.2316C45.8533 57.4112 45.8862 57.5817 45.9328 57.7467H14.1657C13.4182 57.7467 12.8105 57.139 12.8105 56.3915V12.3442Z" fill="#378FEB"/>
  <path d="M32.4877 9.33711C33.0337 9.33711 33.4763 8.89453 33.4763 8.34858C33.4763 7.80263 33.0337 7.36005 32.4877 7.36005C31.9418 7.36005 31.4992 7.80263 31.4992 8.34858C31.4992 8.89453 31.9418 9.33711 32.4877 9.33711Z" fill="#378FEB"/>
  <path d="M18.2086 20.1186C18.2086 20.4401 18.4687 20.7003 18.7902 20.7003H35.0271C35.3486 20.7003 35.6087 20.4401 35.6087 20.1186C35.6087 19.7971 35.3486 19.537 35.0271 19.537H18.7902C18.4687 19.537 18.2086 19.7971 18.2086 20.1186Z" fill="#378FEB"/>
  <path d="M35.0271 22.2509H18.7902C18.4687 22.2509 18.2086 22.5111 18.2086 22.8325C18.2086 23.154 18.4687 23.4142 18.7902 23.4142H35.0271C35.3486 23.4142 35.6087 23.154 35.6087 22.8325C35.6087 22.5111 35.3486 22.2509 35.0271 22.2509Z" fill="#378FEB"/>
  <path d="M18.7902 26.1286H27.2188C27.5403 26.1286 27.8004 25.8685 27.8004 25.547C27.8004 25.2255 27.5403 24.9653 27.2188 24.9653H18.7902C18.4687 24.9653 18.2086 25.2255 18.2086 25.547C18.2086 25.8685 18.4687 26.1286 18.7902 26.1286Z" fill="#378FEB"/>
  <path d="M35.0271 31.0726H18.7902C18.4687 31.0726 18.2086 31.3328 18.2086 31.6543C18.2086 31.9758 18.4687 32.2359 18.7902 32.2359H35.0271C35.3486 32.2359 35.6087 31.9758 35.6087 31.6543C35.6087 31.3328 35.3486 31.0726 35.0271 31.0726Z" fill="#378FEB"/>
  <path d="M35.0271 33.787H18.7902C18.4687 33.787 18.2086 34.0472 18.2086 34.3687C18.2086 34.6902 18.4687 34.9503 18.7902 34.9503H35.0271C35.3486 34.9503 35.6087 34.6902 35.6087 34.3687C35.6087 34.0472 35.3486 33.787 35.0271 33.787Z" fill="#378FEB"/>
  <path d="M18.7902 37.6643H27.2188C27.5403 37.6643 27.8004 37.4042 27.8004 37.0827C27.8004 36.7612 27.5403 36.501 27.2188 36.501H18.7902C18.4687 36.501 18.2086 36.7612 18.2086 37.0827C18.2086 37.4042 18.4687 37.6643 18.7902 37.6643Z" fill="#378FEB"/>
  <path d="M35.0271 42.6081H18.7902C18.4687 42.6081 18.2086 42.8682 18.2086 43.1897C18.2086 43.5112 18.4687 43.7713 18.7902 43.7713H35.0271C35.3486 43.7713 35.6087 43.5112 35.6087 43.1897C35.6087 42.8682 35.3486 42.6081 35.0271 42.6081Z" fill="#378FEB"/>
  <path d="M35.0271 45.3225H18.7902C18.4687 45.3225 18.2086 45.5827 18.2086 45.9041C18.2086 46.2256 18.4687 46.4858 18.7902 46.4858H35.0271C35.3486 46.4858 35.6087 46.2256 35.6087 45.9041C35.6087 45.5827 35.3486 45.3225 35.0271 45.3225Z" fill="#378FEB"/>
  <path d="M27.2188 48.0369H18.7902C18.4687 48.0369 18.2086 48.2971 18.2086 48.6186C18.2086 48.94 18.4687 49.2002 18.7902 49.2002H27.2188C27.5403 49.2002 27.8004 48.94 27.8004 48.6186C27.8004 48.2971 27.5403 48.0369 27.2188 48.0369Z" fill="#378FEB"/>
  <path d="M40.8739 25.1789C41.1011 25.4061 41.4693 25.406 41.6964 25.1789L44.9437 21.9311C45.1709 21.7039 45.1709 21.3358 44.9437 21.1086C44.7165 20.8814 44.3484 20.8814 44.1212 21.1086L41.2852 23.9452L40.194 22.8535C39.9668 22.6263 39.5988 22.6263 39.3716 22.8535C39.1444 23.0807 39.1444 23.4488 39.3716 23.676L40.8739 25.1789Z" fill="#378FEB"/>
  <path d="M44.1212 44.1558L41.2852 46.9924L40.194 45.9007C39.9668 45.6735 39.5988 45.6735 39.3716 45.9007C39.1444 46.1279 39.1444 46.4959 39.3716 46.7231L40.8739 48.2261C41.1011 48.4533 41.4693 48.4531 41.6964 48.2261L44.9437 44.9782C45.1709 44.751 45.1709 44.383 44.9437 44.1558C44.7165 43.9286 44.3484 43.9286 44.1212 44.1558Z" fill="#378FEB"/>
  <path d="M40.2301 36.4777C40.4357 36.6508 40.7351 36.628 40.912 36.4245L42.1356 35.0075L43.3543 36.4245C43.5312 36.628 43.8304 36.6509 44.0362 36.4777C44.2393 36.3036 44.2635 35.9989 44.0894 35.7958L42.7739 34.2675L44.0894 32.7393C44.2635 32.5362 44.2393 32.2315 44.0362 32.0574C43.8331 31.8833 43.5284 31.9075 43.3543 32.1106L42.1356 33.5276L40.912 32.1106C40.7379 31.9075 40.4332 31.8833 40.2301 32.0574C40.027 32.2315 40.0028 32.5362 40.1769 32.7393L41.4923 34.2675L40.1769 35.7958C40.0028 35.9989 40.027 36.3036 40.2301 36.4777Z" fill="#378FEB"/>
</svg>