<svg xmlns="http://www.w3.org/2000/svg" width="64" height="64" viewBox="0 0 64 64" fill="none">
  <path d="M34.4153 39.7288H32.4831V44.5593H34.4153V39.7288Z" fill="#378FEB"/>
  <path d="M30.5509 39.7288H28.6187V44.5593H30.5509V39.7288Z" fill="#378FEB"/>
  <path d="M26.6864 39.7288H24.7542V44.5593H26.6864V39.7288Z" fill="#378FEB"/>
  <path d="M22.822 39.7288H20.8898V44.5593H22.822V39.7288Z" fill="#378FEB"/>
  <path d="M15.0932 39.7288H13.161V44.5593H15.0932V39.7288Z" fill="#378FEB"/>
  <path d="M11.2288 39.7288H9.2966V44.5593H11.2288V39.7288Z" fill="#378FEB"/>
  <path d="M52.5297 58.0847C51.0274 58.0847 50.3168 57.6927 49.4939 57.2394C48.5711 56.7303 47.5255 56.1525 45.5249 56.1525C43.5244 56.1525 42.4791 56.7297 41.5562 57.2394C40.7334 57.6933 40.0225 58.0847 38.5206 58.0847C37.0187 58.0847 36.308 57.6927 35.4852 57.2394C34.5625 56.7303 33.5168 56.1525 31.5165 56.1525C29.5162 56.1525 28.4707 56.7297 27.548 57.2394C26.7252 57.6933 26.0149 58.0847 24.5126 58.0847C23.0103 58.0847 22.3 57.6927 21.4773 57.2394C20.5545 56.7303 19.5089 56.1525 17.5086 56.1525C15.5083 56.1525 14.4626 56.7297 13.5399 57.2394C12.7171 57.6933 12.0062 58.0847 10.5044 58.0847C9.00256 58.0847 8.29187 57.6927 7.46923 57.2394C6.54637 56.7303 5.5008 56.1525 3.50049 56.1525V58.0847C5.00266 58.0847 5.7131 58.4767 6.53586 58.9301C7.45861 59.4392 8.50429 60.0169 10.5044 60.0169C12.5044 60.0169 13.5504 59.4398 14.4731 58.9301C15.2959 58.4761 16.0068 58.0847 17.5086 58.0847C19.0104 58.0847 19.7212 58.4767 20.544 58.9301C21.4667 59.4392 22.5124 60.0169 24.5126 60.0169C26.5128 60.0169 27.5585 59.4398 28.4813 58.9301C29.304 58.4761 30.0144 58.0847 31.5165 58.0847C33.0185 58.0847 33.7292 58.4767 34.552 58.9301C35.4748 59.4392 36.5204 60.0169 38.5206 60.0169C40.5208 60.0169 41.5667 59.4398 42.4895 58.9301C43.3122 58.4761 44.0231 58.0847 45.5249 58.0847C47.0268 58.0847 47.7378 58.4767 48.5607 58.9301C49.4835 59.4392 50.5297 60.0169 52.5297 60.0169C54.5296 60.0169 55.5758 59.4398 56.4987 58.9301C57.3215 58.4761 58.0323 58.0847 59.5344 58.0847V56.1525C57.5343 56.1525 56.4883 56.7297 55.5654 57.2394C54.742 57.6927 54.0316 58.0847 52.5297 58.0847Z" fill="#378FEB"/>
  <path d="M42.1441 54.2204H44.0763V47.4576C44.0763 47.2014 43.9745 46.9557 43.7933 46.7745C43.6121 46.5933 43.3664 46.4915 43.1102 46.4915H38.2797V36.8305C38.2797 36.5743 38.1779 36.3286 37.9967 36.1474C37.8155 35.9662 37.5698 35.8644 37.3136 35.8644H33.4492V26.2034C33.4492 25.9472 33.3474 25.7014 33.1662 25.5203C32.985 25.3391 32.7393 25.2373 32.4831 25.2373H9.29661C9.04038 25.2373 8.79465 25.3391 8.61347 25.5203C8.43229 25.7014 8.33051 25.9472 8.33051 26.2034V35.8644H6.39831C6.14208 35.8644 5.89635 35.9662 5.71517 36.1474C5.53399 36.3286 5.4322 36.5743 5.4322 36.8305V46.4915H3.5V48.4237H42.1441V54.2204ZM36.3475 46.4915H18.9576V37.7966H36.3475V46.4915ZM31.5169 35.8644H21.8559V27.1695H31.5169V35.8644ZM10.2627 27.1695H19.9237V35.8644H10.2627V27.1695ZM7.36441 37.7966H17.0254V46.4915H7.36441V37.7966Z" fill="#378FEB"/>
  <path d="M14.1271 29.1017H12.1949V33.9322H14.1271V29.1017Z" fill="#378FEB"/>
  <path d="M17.9915 29.1017H16.0593V33.9322H17.9915V29.1017Z" fill="#378FEB"/>
  <path d="M25.7204 29.1017H23.7881V33.9322H25.7204V29.1017Z" fill="#378FEB"/>
  <path d="M29.5847 29.1017H27.6525V33.9322H29.5847V29.1017Z" fill="#378FEB"/>
  <path d="M56.6356 41.661H54.7034V43.5932H56.6356V41.661Z" fill="#378FEB"/>
  <path d="M20.8898 10.7458H17.0254V12.678H20.8898V10.7458Z" fill="#378FEB"/>
  <path d="M9.29661 18.4746H12.1949C12.3218 18.4746 12.4474 18.4496 12.5646 18.401C12.6818 18.3525 12.7884 18.2813 12.8781 18.1916L14.5273 16.5424H15.0932V23.3051H17.0254V16.5424H20.8898V23.3051H22.822V16.5424H23.7881C24.0444 16.5424 24.2901 16.4406 24.4713 16.2594C24.6524 16.0782 24.7542 15.8325 24.7542 15.5763V14.6102H50.839V23.3051H48.9068V25.2373H50.839V27.1695C50.839 27.4257 50.9408 27.6714 51.1219 27.8526C51.3031 28.0338 51.5489 28.1356 51.8051 28.1356C51.9962 28.1356 52.1829 28.1922 52.3418 28.2984C52.5007 28.4045 52.6245 28.5554 52.6976 28.732C52.7708 28.9085 52.7899 29.1027 52.7526 29.2902C52.7153 29.4776 52.6233 29.6497 52.4882 29.7848C52.3531 29.9199 52.181 30.0119 51.9936 30.0492C51.8062 30.0865 51.6119 30.0674 51.4354 29.9942C51.2588 29.9211 51.108 29.7973 51.0018 29.6384C50.8956 29.4795 50.839 29.2928 50.839 29.1017H48.9068C48.9068 29.633 49.0529 30.1541 49.3291 30.608C49.6053 31.062 50.001 31.4312 50.4729 31.6755C50.9447 31.9197 51.4747 32.0295 52.0048 31.9929C52.5348 31.9563 53.0447 31.7747 53.4785 31.4679C53.9123 31.1611 54.2535 30.741 54.4646 30.2534C54.6758 29.7658 54.7489 29.2296 54.6759 28.7033C54.6029 28.1769 54.3866 27.6808 54.0507 27.2692C53.7148 26.8575 53.2721 26.5461 52.7712 26.3689V25.2373H54.7034V23.3051H52.7712V14.6102H54.7034C54.8828 14.6102 55.0587 14.5602 55.2113 14.4659C55.3639 14.3715 55.4873 14.2366 55.5675 14.0761C55.6477 13.9156 55.6817 13.736 55.6656 13.5573C55.6495 13.3786 55.5839 13.2079 55.4763 13.0644L52.578 9.19998C52.488 9.08 52.3713 8.98261 52.2371 8.91553C52.103 8.84846 51.9551 8.81354 51.8051 8.81354H24.7542V7.84744C24.7542 7.59121 24.6524 7.34548 24.4713 7.1643C24.2901 6.98312 24.0444 6.88134 23.7881 6.88134H20.8898V4.94913H18.9576V6.88134H17.0254V3.98303H15.0932V6.88134H14.5273L12.8781 5.23208C12.7884 5.14237 12.6818 5.07121 12.5646 5.02266C12.4474 4.97411 12.3218 4.94913 12.1949 4.94913H9.29661C9.04038 4.94913 8.79465 5.05092 8.61347 5.2321C8.43229 5.41328 8.33051 5.65901 8.33051 5.91524V17.5085C8.33051 17.7647 8.43229 18.0104 8.61347 18.1916C8.79465 18.3728 9.04038 18.4746 9.29661 18.4746ZM51.322 10.7457L52.7712 12.6779H24.7542V10.7457H51.322ZM15.0932 8.81354H22.822V14.6102H15.0932V8.81354ZM10.2627 6.88134H11.7948L13.161 8.24765V15.176L11.7948 16.5424H10.2627V6.88134Z" fill="#378FEB"/>
  <path d="M59.5339 37.7966H57.6017V34.8983H55.6695V37.7966H53.7373V35.8644H51.8051V37.7966H46.9746C46.7183 37.7966 46.4726 37.8984 46.2914 38.0796C46.1102 38.2608 46.0085 38.5065 46.0085 38.7627V41.661H40.2119V43.5932H46.9746C47.2308 43.5932 47.4765 43.4914 47.6577 43.3103C47.8389 43.1291 47.9407 42.8834 47.9407 42.6271V39.7288H58.5678V44.0775C58.5661 45.6175 58.2451 47.1405 57.625 48.5501C57.0048 49.9598 56.0991 51.2255 54.9649 52.2674L51.5032 55.4401L52.8092 56.8651L56.2708 53.6921C57.6021 52.469 58.6654 50.9831 59.3933 49.3282C60.1213 47.6733 60.4981 45.8854 60.5 44.0775V38.7627C60.5 38.5065 60.3982 38.2608 60.217 38.0796C60.0358 37.8984 59.7901 37.7966 59.5339 37.7966Z" fill="#378FEB"/>
</svg>