<svg xmlns="http://www.w3.org/2000/svg" width="65" height="65" viewBox="0 0 65 65" fill="none">
  <path d="M51.5265 18.8035C51.1294 18.4068 50.6579 18.0922 50.1392 17.8778C49.6204 17.6633 49.0645 17.5531 48.5032 17.5536H39.743L36.5381 13.6649C36.4342 13.5401 36.3032 13.4405 36.1552 13.3739C36.0071 13.3072 35.8457 13.2752 35.6834 13.2803H30.3418C30.1387 13.28 29.9396 13.3376 29.768 13.4464C29.5964 13.5552 29.4594 13.7107 29.3731 13.8946C29.2867 14.0785 29.2546 14.2832 29.2805 14.4847C29.3064 14.6863 29.3892 14.8762 29.5192 15.0323L31.6559 17.5536H22.8636C22.5651 17.5569 22.2677 17.5927 21.9769 17.6604L20.6095 14.9362C20.5207 14.76 20.3849 14.6119 20.2171 14.5081C20.0492 14.4044 19.856 14.3492 19.6587 14.3486H16.4538C16.2716 14.3492 16.0927 14.3963 15.9339 14.4854C15.7751 14.5746 15.6418 14.7029 15.5465 14.8581C15.4512 15.0133 15.3972 15.1903 15.3896 15.3722C15.382 15.5542 15.421 15.7351 15.503 15.8977L18.5904 22.1367C18.6688 23.2155 19.1534 24.2244 19.9465 24.96C20.7395 25.6955 21.782 26.103 22.8636 26.1001H28.6005L27.3826 27.553C27.2526 27.7091 27.1698 27.8991 27.1439 28.1006C27.118 28.3021 27.1501 28.5069 27.2364 28.6908C27.3228 28.8747 27.4598 29.0302 27.6314 29.139C27.803 29.2478 28.002 29.3054 28.2052 29.3051H33.5468C33.7037 29.3053 33.8588 29.271 34.001 29.2045C34.1431 29.138 34.2689 29.0411 34.3694 28.9205L36.7517 26.1001H48.5032C49.3488 26.1008 50.1757 25.8505 50.879 25.381C51.5824 24.9115 52.1306 24.2439 52.4543 23.4626C52.778 22.6814 52.8627 21.8216 52.6975 20.9922C52.5323 20.1629 52.1248 19.4011 51.5265 18.8035ZM50.0095 20.3205C50.1438 20.4468 50.2558 20.5949 50.3407 20.7585H47.4349V19.6902H48.5032C49.0689 19.6926 49.6106 19.9193 50.0095 20.3205ZM32.6173 15.4169H35.1813L36.9654 17.5536H34.4014L32.6173 15.4169ZM18.9963 16.4853L20.0647 18.6219C19.8646 18.7881 19.6821 18.9742 19.5198 19.1774L18.1844 16.4853H18.9963ZM33.0447 27.1684H30.4914L34.0489 22.8952H36.6022L33.0447 27.1684ZM48.5032 23.9635H38.4931L39.7109 22.5106C39.841 22.3545 39.9238 22.1645 39.9497 21.963C39.9756 21.7614 39.9435 21.5567 39.8571 21.3728C39.7708 21.1889 39.6338 21.0334 39.4622 20.9246C39.2906 20.8158 39.0915 20.7582 38.8883 20.7585H33.5468C33.3898 20.7583 33.2348 20.7926 33.0926 20.8591C32.9504 20.9255 32.8246 21.0225 32.7242 21.1431L30.3418 23.9635H22.8636C22.3823 23.963 21.9152 23.7999 21.5381 23.5008C21.161 23.2016 20.8959 22.7839 20.7859 22.3153C20.6758 21.8467 20.7272 21.3546 20.9318 20.9189C21.1363 20.4832 21.482 20.1293 21.9128 19.9146C22.2082 19.7674 22.5336 19.6906 22.8636 19.6902H45.2982V21.8268C45.2982 22.1102 45.4108 22.3819 45.6111 22.5823C45.8115 22.7826 46.0832 22.8952 46.3665 22.8952H50.3407C50.1542 23.2181 49.8865 23.4866 49.5642 23.674C49.2418 23.8614 48.876 23.9612 48.5032 23.9635Z" fill="#378FEB"/>
  <path d="M33.0907 46.908C31.9373 46.9015 30.8248 47.3352 29.9799 48.1205C29.7392 48.3694 29.4502 48.5665 29.1306 48.6998C28.8111 48.8331 28.4676 48.8997 28.1214 48.8957C27.8659 48.9031 27.6109 48.8695 27.3661 48.7963C28.3952 48.2208 29.2956 47.4407 30.0118 46.504C30.728 45.5674 31.2448 44.4939 31.5303 43.35L32.0968 41.1833C32.1563 40.9463 32.1263 40.6957 32.0126 40.4793C31.899 40.263 31.7096 40.0961 31.4806 40.0106L29.1153 39.136V32.9939C29.1153 32.7304 29.0106 32.4776 28.8242 32.2912C28.6378 32.1048 28.385 32.0001 28.1214 32.0001H26.1337V29.0185C26.1337 28.7549 26.029 28.5021 25.8426 28.3158C25.6562 28.1294 25.4034 28.0247 25.1398 28.0247H21.1644C20.9008 28.0247 20.648 28.1294 20.4617 28.3158C20.2753 28.5021 20.1706 28.7549 20.1706 29.0185V32.0001H18.1829C17.9193 32.0001 17.6665 32.1048 17.4801 32.2912C17.2937 32.4776 17.189 32.7304 17.189 32.9939V39.136L14.8534 40.0106C14.619 40.0904 14.4228 40.2549 14.3033 40.4719C14.1838 40.6888 14.1496 40.9425 14.2074 41.1833L14.7441 43.35C15.0297 44.4939 15.5465 45.5674 16.2627 46.504C16.9789 47.4407 17.8792 48.2208 18.9084 48.7963C18.6721 48.8618 18.4281 48.8953 18.1829 48.8957C17.8353 48.8988 17.4907 48.8317 17.1696 48.6985C16.8486 48.5653 16.5577 48.3687 16.3144 48.1205C15.4737 47.3349 14.3642 46.9011 13.2136 46.908C12.95 46.908 12.6972 47.0127 12.5108 47.1991C12.3244 47.3854 12.2197 47.6382 12.2197 47.9018C12.2197 48.1654 12.3244 48.4182 12.5108 48.6046C12.6972 48.791 12.95 48.8957 13.2136 48.8957C13.5598 48.8916 13.9032 48.9583 14.2228 49.0916C14.5424 49.2249 14.8314 49.422 15.0721 49.6709C15.9177 50.4482 17.0243 50.8797 18.1729 50.8797C19.3215 50.8797 20.4282 50.4482 21.2738 49.6709C21.5404 49.4284 21.8419 49.2274 22.1682 49.0746C22.4787 48.9421 22.8149 48.881 23.1521 48.8957C23.4922 48.8867 23.8304 48.9475 24.146 49.0746C24.4636 49.2373 24.7606 49.4375 25.0305 49.6709C25.8761 50.4482 26.9828 50.8797 28.1314 50.8797C29.2799 50.8797 30.3866 50.4482 31.2322 49.6709C31.4743 49.4239 31.7636 49.228 32.0828 49.0948C32.4021 48.9616 32.7448 48.8939 33.0907 48.8957C33.3543 48.8957 33.6071 48.791 33.7935 48.6046C33.9798 48.4182 34.0845 48.1654 34.0845 47.9018C34.0845 47.6382 33.9798 47.3854 33.7935 47.1991C33.6071 47.0127 33.3543 46.908 33.0907 46.908ZM29.9203 41.561L29.5923 42.8729C29.3312 43.9302 28.8125 44.9064 28.0824 45.7145C27.3523 46.5226 26.4336 47.1375 25.4082 47.5043C25.0178 47.2701 24.5913 47.1022 24.146 47.0074V39.3944L29.9203 41.561ZM22.1583 30.0124H24.146V32.0001H22.1583V30.0124ZM19.1767 33.9878H27.1276V38.3906L23.5 37.029C23.2749 36.9494 23.0294 36.9494 22.8043 37.029L19.1767 38.3906V33.9878ZM16.712 42.8729L16.384 41.561L22.1583 39.3944V47.0074C21.7114 47.0969 21.2841 47.2652 20.8961 47.5043C19.8707 47.1375 18.9519 46.5226 18.2219 45.7145C17.4918 44.9064 16.9731 43.9302 16.712 42.8729Z" fill="#378FEB"/>
</svg>