<svg xmlns="http://www.w3.org/2000/svg" width="64" height="65" viewBox="0 0 64 65" fill="none">
  <path d="M8.66131 43.9633C7.29834 43.9633 6.18945 45.0722 6.18945 46.4352C6.18945 47.7981 7.29834 48.907 8.66131 48.907C10.0243 48.907 11.1332 47.7981 11.1332 46.4352C11.1332 45.0721 10.0243 43.9633 8.66131 43.9633ZM8.66131 47.5175C8.06444 47.5175 7.5789 47.032 7.5789 46.4352C7.5789 45.8383 8.06448 45.3527 8.66131 45.3527C9.25815 45.3527 9.74373 45.8383 9.74373 46.4352C9.74373 47.032 9.25812 47.5175 8.66131 47.5175Z" fill="#378FEB"/>
  <path d="M31.5186 43.9633C30.1557 43.9633 29.0469 45.0722 29.0469 46.4352C29.0469 47.7981 30.1557 48.907 31.5186 48.907C32.8816 48.907 33.9905 47.7981 33.9905 46.4352C33.9905 45.0721 32.8816 43.9633 31.5186 43.9633ZM31.5186 47.5175C30.9218 47.5175 30.4363 47.032 30.4363 46.4352C30.4363 45.8383 30.9219 45.3527 31.5186 45.3527C32.1155 45.3527 32.601 45.8383 32.601 46.4352C32.601 47.032 32.1155 47.5175 31.5186 47.5175Z" fill="#378FEB"/>
  <path d="M62.3447 44.6197H42.467V14.3948C42.467 14.0111 42.156 13.7001 41.7723 13.7001C41.3886 13.7001 41.0776 14.0111 41.0776 14.3948V42.2973H39.2203V41.3227C39.2203 39.4855 37.8965 37.9519 36.1526 37.625V34.7965C36.1526 34.307 36.0282 33.8214 35.7928 33.3922C35.787 33.3816 35.7803 33.3718 35.774 33.3615L35.7751 33.3608L24.7024 15.3972C24.6881 15.3667 24.6723 15.3367 24.6531 15.3078C24.003 14.3268 22.9124 13.7411 21.7356 13.7411H7.1423C5.6565 13.7411 4.44771 14.9499 4.44771 16.4359V37.5605H3.4281C2.06662 37.5605 0.958984 38.6682 0.958984 40.0296V44.6611C0.958984 46.0226 2.06662 47.1302 3.4281 47.1302H3.84643C4.18455 49.4846 6.21467 51.3001 8.66114 51.3001C11.1075 51.3001 13.1376 49.4846 13.4757 47.1302H26.7034C27.0415 49.4846 29.0716 51.3001 31.518 51.3001C33.9645 51.3001 35.9946 49.4846 36.3327 47.1302H36.7511C38.1126 47.1302 39.2203 46.0226 39.2203 44.6611V43.6867H41.0776V45.3145C41.0776 45.6982 41.3886 46.0092 41.7723 46.0092C41.7896 46.0092 62.3447 46.0092 62.3447 46.0092C62.7284 46.0092 63.0394 45.6982 63.0394 45.3145C63.0394 44.9308 62.7284 44.6197 62.3447 44.6197ZM34.7631 37.5605H28.2311V34.421H34.716C34.7471 34.5434 34.7631 34.6697 34.7631 34.7965V37.5605ZM18.7173 37.5605V32.6659L21.6336 33.1075L21.6337 33.1069C21.6517 33.1096 21.6697 33.1122 21.6882 33.1135C21.7361 33.117 21.7838 33.1186 21.8312 33.1186C21.867 33.1186 21.9027 33.1173 21.9381 33.1154L20.9038 34.3994C20.6631 34.6982 20.7103 35.1355 21.009 35.3762C21.1374 35.4797 21.2914 35.5299 21.4444 35.5299C21.6474 35.5299 21.8486 35.4414 21.9859 35.271L23.7659 33.0614L26.8416 35.5217V37.5604L18.7173 37.5605ZM11.7461 37.5605V29.443C11.7461 27.9041 12.998 26.6521 14.5369 26.6521C16.0759 26.6521 17.328 27.9041 17.328 29.443C17.328 29.8038 17.6031 30.1003 17.9551 30.1342V30.1344L21.7604 30.5056C21.7608 30.5057 21.7612 30.5057 21.7616 30.5058L21.7687 30.5065L21.7687 30.5062C21.7895 30.5082 21.8105 30.5096 21.8318 30.5098C21.8713 30.51 21.9101 30.5138 21.9476 30.5212C22.2775 30.5858 22.4934 30.9067 22.4288 31.2365C22.3708 31.5325 22.1044 31.7412 21.8045 31.728L18.1266 31.1712L18.1264 31.1719C18.0925 31.1668 18.0579 31.1633 18.0226 31.1633C17.6389 31.1633 17.3279 31.4744 17.3279 31.8581V37.5604L11.7461 37.5605ZM14.537 25.2627C13.2242 25.2627 12.1562 24.1947 12.1562 22.8819C12.1562 21.5691 13.2242 20.501 14.537 20.501C15.8498 20.501 16.9179 21.5691 16.9179 22.8819C16.9179 24.1947 15.8498 25.2627 14.537 25.2627ZM5.83716 16.4358C5.83716 15.7161 6.42264 15.1305 7.1423 15.1305H21.7356C22.4404 15.1305 23.0939 15.4791 23.4868 16.0636L23.4826 16.0662L33.9398 33.0315H27.5363C27.1526 33.0315 26.8416 33.3425 26.8416 33.7262V33.7424L24.6376 31.9793L26.4147 29.7733C26.6554 29.4745 26.6083 29.0372 26.3095 28.7964C26.0107 28.5558 25.5734 28.6028 25.3327 28.9016L23.8038 30.7995C23.6729 29.9978 23.0575 29.3227 22.2151 29.1577C22.1065 29.1364 21.9949 29.1246 21.8829 29.1216L18.6693 28.808C18.4833 27.5928 17.772 26.5483 16.7753 25.9139C17.704 25.2265 18.3073 24.1234 18.3073 22.8819C18.3073 20.8029 16.616 19.1116 14.5371 19.1116C12.4581 19.1116 10.7667 20.8029 10.7667 22.8819C10.7667 24.1234 11.37 25.2265 12.2987 25.9139C11.1322 26.6563 10.3566 27.9607 10.3566 29.443V37.5604H9.73675V24.3536H9.73668C9.73668 23.3714 8.93754 22.5723 7.95527 22.5723C6.973 22.5723 6.17389 23.3714 6.17389 24.3536V37.5605H5.83719V16.4358H5.83716ZM7.5633 24.3536C7.5633 24.1375 7.73914 23.9617 7.95523 23.9617C8.17133 23.9617 8.3472 24.1375 8.3472 24.3536C8.3472 24.354 8.34726 24.3545 8.34726 24.3549V37.5605H7.5633V24.3536ZM8.66118 49.9106C6.74499 49.9106 5.18606 48.3517 5.18606 46.4355C5.18606 44.5193 6.74499 42.9604 8.66118 42.9604C10.5773 42.9604 12.1362 44.5193 12.1362 46.4355C12.1362 48.3517 10.5773 49.9106 8.66118 49.9106ZM31.518 49.9106C29.6019 49.9106 28.043 48.3517 28.043 46.4355C28.043 44.5193 29.6019 42.9604 31.518 42.9604C33.4342 42.9604 34.9932 44.5193 34.9932 46.4355C34.9932 48.3517 33.4342 49.9106 31.518 49.9106ZM36.7512 45.7407H36.3328C35.9947 43.3864 33.9645 41.5709 31.518 41.5709C29.0716 41.5709 27.0415 43.3864 26.7034 45.7407H13.4758C13.1376 43.3864 11.1075 41.5709 8.66118 41.5709C6.21467 41.5709 4.18459 43.3864 3.84646 45.7407H3.42814C2.83279 45.7407 2.34847 45.2564 2.34847 44.6611V40.0296C2.34847 39.4342 2.83279 38.9499 3.42814 38.9499H35.4579C36.7663 38.9499 37.8308 40.0144 37.8308 41.3227V44.6611C37.8308 45.2564 37.3465 45.7407 36.7512 45.7407Z" fill="#378FEB"/>
  <path d="M57.8997 39.1066H56.4184C56.0346 39.1066 55.7236 39.4176 55.7236 39.8013C55.7236 40.185 56.0346 40.496 56.4184 40.496H57.8997C58.2834 40.496 58.5944 40.185 58.5944 39.8013C58.5944 39.4176 58.2834 39.1066 57.8997 39.1066Z" fill="#378FEB"/>
  <path d="M44.0424 43.8564H61.1363C61.52 43.8564 61.831 43.5453 61.831 43.1616V26.0676C61.831 25.684 61.52 25.3729 61.1363 25.3729H44.0424C43.6587 25.3729 43.3477 25.684 43.3477 26.0676V43.1616C43.3477 43.5453 43.6587 43.8564 44.0424 43.8564ZM54.7151 30.1736L53.0624 28.6376L53.0619 28.6382C52.7978 28.3923 52.385 28.3881 52.1165 28.6376L50.4635 30.1736V26.7624H54.7151V30.1736H54.7151ZM44.7371 26.7624H49.0741V31.7676H49.0748C49.0748 31.937 49.1355 32.1067 49.2599 32.2405C49.3967 32.3878 49.5826 32.4623 49.769 32.4623C49.9382 32.4623 50.1079 32.4008 50.2417 32.2765L52.5893 30.0949L54.9369 32.2765L54.9374 32.2759C55.0614 32.3912 55.2271 32.4623 55.4098 32.4623C55.7936 32.4623 56.1046 32.1513 56.1046 31.7676V26.7624H60.4415V42.4669H44.7371L44.7371 26.7624Z" fill="#378FEB"/>
</svg>