<svg xmlns="http://www.w3.org/2000/svg" width="24" height="24" viewBox="0 0 24 24" fill="none">
<g clip-path="url(#clip0_2_453)">
<path d="M23.9999 12C23.9999 5.3726 18.6274 2.67029e-05 11.9999 2.67029e-05C5.37252 2.67029e-05 -6.10352e-05 5.3726 -6.10352e-05 12C-6.10352e-05 17.9896 4.38817 22.954 10.1249 23.8542V15.4688H7.07806V12H10.1249V9.35628C10.1249 6.34878 11.9165 4.68753 14.6575 4.68753C15.9704 4.68753 17.3437 4.9219 17.3437 4.9219V7.87503H15.8305C14.3398 7.87503 13.8749 8.80003 13.8749 9.74902V12H17.2031L16.671 15.4688H13.8749V23.8542C19.6117 22.954 23.9999 17.9896 23.9999 12Z" fill="white"/>
</g>
<defs>
<clipPath id="clip0_2_453">
<rect width="24" height="24" fill="white"/>
</clipPath>
</defs>
</svg>