<svg xmlns="http://www.w3.org/2000/svg" width="64" height="65" viewBox="0 0 64 65" fill="none">
  <path d="M59.4683 13.4809H25.3593C24.796 13.4809 24.3413 13.9356 24.3413 14.4989V17.2678H13.9918C13.6864 17.2678 13.4014 17.4035 13.2114 17.6342L3.73741 29.0017C3.73741 29.0017 3.73062 29.0152 3.72383 29.0288C3.66275 29.1103 3.60846 29.1985 3.56774 29.2935C3.56774 29.3071 3.56096 29.3206 3.55417 29.3342C3.52024 29.436 3.49988 29.5378 3.49988 29.6532V37.2337V42.9208C3.49988 43.4841 3.95457 43.9388 4.51786 43.9388H8.98339C9.02411 48.1261 12.4377 51.5193 16.6318 51.5193C20.8259 51.5193 24.2395 48.1261 24.2802 43.9388H39.5159C39.5567 48.1261 42.9703 51.5193 47.1644 51.5193C51.3584 51.5193 54.772 48.1261 54.8128 43.9388H59.4819C60.0452 43.9388 60.4999 43.4841 60.4999 42.9208V14.4989C60.4999 13.9356 60.0452 13.4809 59.4819 13.4809H59.4683ZM26.3772 15.5169H58.4503V36.2225H26.3772V15.5169ZM39.767 41.9096H24.0087C23.6287 40.4913 22.855 39.229 21.8031 38.2585H41.9727C40.9208 39.229 40.1471 40.4845 39.767 41.9096ZM24.3413 36.2225H5.52905V30.6779H19.6722C20.2354 30.6779 20.6901 30.2232 20.6901 29.66V19.3105H24.3413V36.2225ZM14.4669 19.3105H18.6542V28.642H6.68276L14.4601 19.3105H14.4669ZM5.53583 38.2585H11.4469C10.395 39.229 9.62132 40.4845 9.24127 41.9096H5.53583V38.2585ZM16.625 49.4902C13.5304 49.4902 11.0126 46.9724 11.0126 43.8777C11.0126 40.7831 13.5304 38.2653 16.625 38.2653C19.7197 38.2653 22.2375 40.7831 22.2375 43.8777C22.2375 46.9724 19.7197 49.4902 16.625 49.4902ZM47.1508 49.4902C44.0561 49.4902 41.5383 46.9724 41.5383 43.8777C41.5383 40.7831 44.0561 38.2653 47.1508 38.2653C50.2454 38.2653 52.7632 40.7831 52.7632 43.8777C52.7632 46.9724 50.2454 49.4902 47.1508 49.4902ZM58.4503 41.9096H54.5345C54.1545 40.4913 53.3808 39.229 52.3289 38.2585H58.4503V41.9096Z" fill="#378FEB"/>
  <path d="M16.625 40.3351C14.6705 40.3351 13.0825 41.9231 13.0825 43.8776C13.0825 45.8322 14.6705 47.4202 16.625 47.4202C18.5795 47.4202 20.1676 45.8322 20.1676 43.8776C20.1676 41.9231 18.5795 40.3351 16.625 40.3351ZM16.625 45.3843C15.7971 45.3843 15.1184 44.7056 15.1184 43.8776C15.1184 43.0497 15.7903 42.371 16.625 42.371C17.4598 42.371 18.1316 43.0429 18.1316 43.8776C18.1316 44.7124 17.453 45.3843 16.625 45.3843Z" fill="#378FEB"/>
  <path d="M47.1508 40.3351C45.1963 40.3351 43.6082 41.9231 43.6082 43.8776C43.6082 45.8322 45.1963 47.4202 47.1508 47.4202C49.1053 47.4202 50.6933 45.8322 50.6933 43.8776C50.6933 41.9231 49.1053 40.3351 47.1508 40.3351ZM47.1508 45.3843C46.3228 45.3843 45.6442 44.7056 45.6442 43.8776C45.6442 43.0497 46.3228 42.371 47.1508 42.371C47.9787 42.371 48.6574 43.0429 48.6574 43.8776C48.6574 44.7124 47.9787 45.3843 47.1508 45.3843Z" fill="#378FEB"/>
  <path d="M31.0396 32.5713C31.6028 32.5713 32.0575 32.1166 32.0575 31.5533V18.2857C32.0575 17.7224 31.6028 17.2677 31.0396 17.2677C30.4763 17.2677 30.0216 17.7224 30.0216 18.2857V31.5533C30.0216 32.1166 30.4763 32.5713 31.0396 32.5713Z" fill="#378FEB"/>
  <path d="M36.7266 32.5713C37.2899 32.5713 37.7446 32.1166 37.7446 31.5533V18.2857C37.7446 17.7224 37.2899 17.2677 36.7266 17.2677C36.1633 17.2677 35.7086 17.7224 35.7086 18.2857V31.5533C35.7086 32.1166 36.1633 32.5713 36.7266 32.5713Z" fill="#378FEB"/>
  <path d="M42.4134 32.5714C42.9766 32.5714 43.4313 32.1167 43.4313 31.5534V18.2857C43.4313 17.7225 42.9766 17.2678 42.4134 17.2678C41.8501 17.2678 41.3954 17.7225 41.3954 18.2857V31.5534C41.3954 32.1167 41.8501 32.5714 42.4134 32.5714Z" fill="#378FEB"/>
  <path d="M48.101 32.5713C48.6642 32.5713 49.1189 32.1166 49.1189 31.5533V18.2857C49.1189 17.7224 48.6642 17.2677 48.101 17.2677C47.5377 17.2677 47.083 17.7224 47.083 18.2857V31.5533C47.083 32.1166 47.5377 32.5713 48.101 32.5713Z" fill="#378FEB"/>
  <path d="M53.781 32.5713C54.3443 32.5713 54.799 32.1166 54.799 31.5533V18.2857C54.799 17.7224 54.3443 17.2677 53.781 17.2677C53.2178 17.2677 52.7631 17.7224 52.7631 18.2857V31.5533C52.7631 32.1166 53.2178 32.5713 53.781 32.5713Z" fill="#378FEB"/>
</svg>