<svg xmlns="http://www.w3.org/2000/svg" width="65" height="64" viewBox="0 0 65 64" fill="none">
  <path d="M47.635 35.569C47.3974 35.569 47.1696 35.6634 47.0016 35.8314C46.8336 35.9994 46.7392 36.2272 46.7392 36.4648V43.9226L28.6251 54.3854V33.4597L36.4101 28.97C36.616 28.8514 36.7664 28.6558 36.8281 28.4264C36.8898 28.1969 36.8578 27.9523 36.7392 27.7464C36.6206 27.5405 36.425 27.3901 36.1955 27.3284C35.966 27.2667 35.7214 27.2987 35.5155 27.4173L27.6565 31.956L20.0769 28.9557L34.3044 21.222C34.4117 21.1679 34.507 21.0929 34.5847 21.0013C34.6624 20.9096 34.7209 20.8033 34.7567 20.6887C34.7926 20.574 34.805 20.4533 34.7933 20.3338C34.7816 20.2142 34.746 20.0982 34.6887 19.9927C34.6313 19.8872 34.5533 19.7942 34.4593 19.7194C34.3654 19.6446 34.2573 19.5894 34.1416 19.5571C34.0259 19.5248 33.9049 19.5161 33.7857 19.5315C33.6666 19.5469 33.5518 19.586 33.448 19.6466L17.4886 28.3203C17.3476 28.3967 17.2297 28.5097 17.1474 28.6473C17.065 28.785 17.0212 28.9422 17.0204 29.1026L16.9929 35.1821L13.6415 33.9471V27.5726L33.6224 17.4203C33.78 17.3405 33.9104 17.2159 33.9973 17.0622C34.0843 16.9085 34.1239 16.7325 34.1111 16.5564C34.0983 16.3803 34.0338 16.2119 33.9256 16.0723C33.8174 15.9327 33.6704 15.8283 33.503 15.772L25.1972 12.9975C25.0861 12.9596 24.9686 12.9443 24.8515 12.9523C24.7344 12.9602 24.6201 12.9915 24.5152 13.044L4.33003 23.053C4.18061 23.1275 4.05494 23.2422 3.96716 23.3842C3.87938 23.5262 3.83297 23.6899 3.83316 23.8569V46.856C3.83263 47.0363 3.88649 47.2125 3.98771 47.3617C4.08892 47.5108 4.23279 47.626 4.4005 47.6921L27.3997 56.779C27.5046 56.8205 27.6164 56.842 27.7293 56.8423C27.8865 56.8427 28.0411 56.8015 28.1772 56.7229L48.0829 45.2245C48.2191 45.1457 48.3322 45.0325 48.4108 44.8963C48.4894 44.76 48.5308 44.6054 48.5308 44.4481V36.4696C48.5314 36.3516 48.5087 36.2346 48.464 36.1253C48.4193 36.0161 48.3534 35.9168 48.2701 35.8331C48.1869 35.7494 48.0879 35.683 47.9789 35.6377C47.8699 35.5924 47.753 35.569 47.635 35.569ZM24.9739 14.8141L30.898 16.7956L12.6991 26.0426L6.93141 23.7625L24.9739 14.8141ZM5.62475 25.1707L11.8499 27.6311V34.5705C11.8512 34.753 11.908 34.9307 12.0127 35.08C12.1175 35.2294 12.2653 35.3433 12.4364 35.4066L17.5722 37.3009C17.7076 37.3494 17.8525 37.3652 17.9951 37.347C18.1378 37.3287 18.274 37.2769 18.3928 37.1958C18.5111 37.1136 18.6079 37.0042 18.675 36.8768C18.7422 36.7494 18.7777 36.6077 18.7786 36.4636L18.806 30.3722L26.8335 33.5433V54.6255L5.62475 46.2469V25.1707Z" fill="#378FEB"/>
  <path d="M51.5829 16.0802L47.7609 19.7829L45.9836 17.9495C45.818 17.7789 45.5913 17.6811 45.3535 17.6776C45.1158 17.6742 44.8864 17.7653 44.7158 17.931C44.5452 18.0966 44.4474 18.3233 44.4439 18.561C44.4405 18.7988 44.5316 19.0282 44.6973 19.1988L47.0992 21.6772C47.2645 21.847 47.4904 21.9445 47.7274 21.9483H47.7418C47.9747 21.9485 48.1984 21.8576 48.3652 21.6951L52.8287 17.3666C52.9991 17.2014 53.0969 16.9753 53.1006 16.738C53.1043 16.5006 53.0136 16.2716 52.8484 16.1011C52.6832 15.9307 52.457 15.8329 52.2197 15.8292C51.9824 15.8255 51.7533 15.9162 51.5829 16.0814V16.0802Z" fill="#378FEB"/>
  <path d="M60.9392 9.25551C60.8586 9.16501 60.7606 9.09171 60.651 9.03999C60.5414 8.98827 60.4225 8.9592 60.3014 8.95453C57.8945 8.81424 55.5211 8.3221 53.2569 7.49379C51.4632 6.7188 49.7508 5.76779 48.1449 4.65473C47.9935 4.54855 47.8132 4.49158 47.6283 4.49158C47.4434 4.49158 47.2631 4.54855 47.1117 4.65473C45.5102 5.76741 43.8022 6.71842 42.0129 7.49379C39.7481 8.32348 37.3739 8.81683 34.966 8.95811C34.8449 8.96269 34.726 8.99178 34.6164 9.04364C34.5069 9.0955 34.4091 9.16905 34.3288 9.25983C34.2485 9.3506 34.1875 9.45673 34.1494 9.57177C34.1113 9.68682 34.097 9.8084 34.1072 9.92915C34.2267 11.3266 35.3016 23.6515 36.6895 26.0725C39.1401 30.1279 42.9048 33.2224 47.3578 34.8417C47.5368 34.899 47.7293 34.899 47.9084 34.8417C52.362 33.223 56.1273 30.1284 58.5779 26.0725C59.9693 23.6479 61.0443 11.323 61.1637 9.92557C61.1731 9.80453 61.1581 9.68284 61.1195 9.56773C61.081 9.45262 61.0196 9.34644 60.9392 9.25551ZM57.024 25.1779C54.8333 28.7495 51.536 31.5079 47.6337 33.0334C43.7288 31.5133 40.4307 28.7536 38.2458 25.1779C37.4002 23.704 36.4434 15.8617 35.9764 10.678C38.2679 10.4739 40.5213 9.96168 42.6758 9.15519C44.4127 8.4217 46.0746 7.52213 47.6385 6.469C49.2025 7.52188 50.8644 8.42144 52.6012 9.15519C54.7556 9.96168 57.0091 10.4739 59.3005 10.678C58.8263 15.8641 57.8696 23.7028 57.024 25.1779Z" fill="#378FEB"/>
  <path d="M47.6351 29.8899C44.7824 28.5781 42.3876 26.4425 40.759 23.7579C39.9999 20.734 39.5004 17.6509 39.266 14.542C39.2559 14.4227 39.2219 14.3067 39.1662 14.2008C39.1104 14.0949 39.034 14.0012 38.9415 13.9253C38.8489 13.8494 38.7421 13.7929 38.6273 13.7589C38.5125 13.725 38.3921 13.7145 38.2731 13.7279C38.1542 13.7413 38.0391 13.7784 37.9348 13.837C37.8304 13.8957 37.7389 13.9746 37.6655 14.0692C37.5922 14.1638 37.5386 14.2721 37.5078 14.3878C37.477 14.5035 37.4698 14.6241 37.4864 14.7427C37.9331 18.7009 38.6497 23.6659 39.1968 24.6346C41.0916 27.7665 43.9119 30.233 47.2685 31.6934C47.3835 31.7454 47.5083 31.7722 47.6345 31.7722C47.7608 31.7722 47.8856 31.7454 48.0006 31.6934C51.3566 30.2333 54.1768 27.7678 56.0723 24.637C56.6205 23.6683 57.3384 18.6877 57.7862 14.7152C57.8032 14.5965 57.7961 14.4756 57.7654 14.3597C57.7347 14.2438 57.6811 14.1352 57.6077 14.0404C57.5343 13.9456 57.4426 13.8665 57.3381 13.8078C57.2336 13.7491 57.1183 13.712 56.9992 13.6986C56.88 13.6853 56.7594 13.696 56.6445 13.7301C56.5296 13.7642 56.4226 13.8211 56.3301 13.8972C56.2375 13.9734 56.1612 14.0675 56.1056 14.1737C56.0501 14.2799 56.0164 14.3962 56.0066 14.5157C55.7695 17.6304 55.2709 20.7196 54.516 23.7507C52.8865 26.438 50.4901 28.5761 47.6351 29.8899Z" fill="#378FEB"/>
  <path d="M52.1966 10.1739C50.7763 9.58558 49.4072 8.88047 48.1034 8.06585C47.9624 7.97998 47.8004 7.93457 47.6352 7.93457C47.4701 7.93457 47.3081 7.97998 47.167 8.06585C45.8643 8.88201 44.4956 9.58757 43.0751 10.1751C42.8543 10.2624 42.6772 10.4338 42.5828 10.6516C42.4884 10.8695 42.4843 11.1159 42.5716 11.3367C42.6589 11.5575 42.8303 11.7345 43.0481 11.829C43.266 11.9234 43.5124 11.9274 43.7332 11.8401C45.0839 11.2901 46.3887 10.6335 47.6352 9.87654C48.8834 10.6303 50.188 11.2863 51.5373 11.8389C51.7563 11.9181 51.9976 11.9088 52.2099 11.8131C52.4222 11.7174 52.5889 11.5428 52.6746 11.3263C52.7604 11.1097 52.7584 10.8683 52.6692 10.6532C52.5799 10.4381 52.4104 10.2662 52.1966 10.1739Z" fill="#378FEB"/>
</svg>