<svg xmlns="http://www.w3.org/2000/svg" width="140" height="289" viewBox="0 0 140 289" fill="none">
<path d="M41.8835 0.5V34.1207C41.8835 36.6599 43.9419 38.7184 46.4812 38.7184H78.9524C81.4917 38.7184 83.5501 40.7768 83.5501 43.3161V75.7874C83.5501 78.3266 85.6086 80.3851 88.1478 80.3851H120.619C123.158 80.3851 125.217 82.4435 125.217 84.9828V117.454C125.217 119.993 127.275 122.052 129.815 122.052H162.286C164.825 122.052 166.883 124.11 166.883 126.649V159.121C166.883 161.66 168.942 163.718 171.481 163.718H205.102M0.216797 0.5V34.1207C0.216797 36.6599 2.27526 38.7184 4.8145 38.7184H37.2858C39.825 38.7184 41.8835 40.7768 41.8835 43.3161V75.7874C41.8835 78.3266 43.9419 80.3851 46.4812 80.3851H78.9524C81.4917 80.3851 83.5501 82.4435 83.5501 84.9828V117.454C83.5501 119.993 81.4917 122.052 78.9524 122.052H46.4812C43.9419 122.052 41.8835 119.993 41.8835 117.454V84.408L41.8432 84.1365C41.5347 82.054 39.7671 80.4991 37.6623 80.4586L33.8375 80.3851H4.8145C2.27526 80.3851 0.216797 82.4435 0.216797 84.9828V117.454C0.216797 119.993 2.27526 122.052 4.8145 122.052H37.5731L38.6646 122.124C40.4759 122.245 41.8835 123.75 41.8835 125.565V129.092M41.8835 125.5V159.121C41.8835 161.66 43.9419 163.718 46.4812 163.718H78.9524C81.4917 163.718 83.5501 165.777 83.5501 168.316V200.787C83.5501 203.327 85.6086 205.385 88.1478 205.385H120.619C123.158 205.385 125.217 207.444 125.217 209.983V242.454C125.217 244.993 127.275 247.052 129.815 247.052H162.286C164.825 247.052 166.883 249.11 166.883 251.649V284.121C166.883 286.66 168.942 288.718 171.481 288.718H205.102" stroke="url(#paint0_linear_24_26720)" stroke-opacity="0.65" stroke-width="0.431035"/>
<defs>
<linearGradient id="paint0_linear_24_26720" x1="0.216797" y1="0.5" x2="200.504" y2="248.345" gradientUnits="userSpaceOnUse">
<stop offset="0.0819437" stop-color="#12C2E9"/>
<stop offset="0.208333" stop-color="#12C2E9"/>
<stop offset="0.526042" stop-color="#C471ED"/>
<stop offset="0.9375" stop-color="#F64F59"/>
</linearGradient>
</defs>
</svg>